<svg width="400" height="400" viewBox="0 0 400 400" fill="none" xmlns="http://www.w3.org/2000/svg">
<circle cx="200.5" cy="199.5" r="127.5" fill="#FFD2B5"/>
<path d="M144.788 240.535V145.125C144.788 138.566 149.856 133.199 156.049 133.199H217.986C224.18 133.199 229.247 138.566 229.247 145.125V240.535C229.247 247.095 224.18 252.461 217.986 252.461H156.049C149.856 252.461 144.788 247.095 144.788 240.535Z" fill="black"/>
<path d="M217.774 141.637H155.837C154.148 141.637 153.021 142.83 153.021 144.619V231.084C153.021 232.873 154.148 234.066 155.837 234.066H217.774C219.463 234.066 220.589 232.873 220.589 231.084V144.619C220.589 142.83 219.463 141.637 217.774 141.637Z" fill="white"/>
<path d="M175.544 240.029H192.436V245.992H175.544V240.029Z" fill="#78909C"/>
<path d="M200.882 246.386V174.828C200.882 168.269 205.949 162.902 212.143 162.902H245.927C252.12 162.902 257.188 168.269 257.188 174.828V246.386C257.188 252.945 252.12 258.312 245.927 258.312H212.143C205.949 258.312 200.882 252.945 200.882 246.386Z" fill="black"/>
<path d="M245.927 171.453H212.143C210.454 171.453 209.328 172.646 209.328 174.434V240.029C209.328 241.818 210.454 243.01 212.143 243.01H245.927C247.616 243.01 248.742 241.818 248.742 240.029V174.434C248.742 172.646 247.616 171.453 245.927 171.453Z" fill="white"/>
<path d="M229.035 254.937C231.367 254.937 233.258 252.934 233.258 250.464C233.258 247.994 231.367 245.992 229.035 245.992C226.703 245.992 224.812 247.994 224.812 250.464C224.812 252.934 226.703 254.937 229.035 254.937Z" fill="white"/>
<path d="M224.565 206.64C224.494 207.317 224.181 207.943 223.683 208.402C222.589 209.413 222.029 210.868 222.144 212.393C222.323 214.743 224.154 216.637 226.404 216.8C226.514 216.808 226.623 216.812 226.732 216.812C227.304 216.812 227.862 216.703 228.395 216.486C229.013 216.235 229.694 216.235 230.312 216.486C230.946 216.744 231.614 216.85 232.3 216.8C234.528 216.641 236.359 214.769 236.559 212.445C236.704 210.755 236.014 209.146 234.714 208.139C234.149 207.702 233.781 207.085 233.676 206.402C233.505 205.284 232.955 204.259 232.128 203.515C230.412 201.972 227.829 201.981 226.121 203.536C225.243 204.335 224.691 205.437 224.565 206.64ZM227.667 205.391C228.085 205.011 228.611 204.82 229.136 204.82C229.657 204.82 230.178 205.007 230.594 205.381C231.005 205.751 231.267 206.239 231.352 206.791C231.554 208.113 232.251 209.294 233.313 210.116C233.949 210.608 234.285 211.396 234.214 212.225C234.117 213.356 233.225 214.268 232.139 214.345C231.802 214.369 231.474 214.318 231.166 214.192C229.997 213.717 228.71 213.717 227.541 214.192C227.232 214.318 226.904 214.369 226.566 214.345C225.47 214.266 224.578 213.343 224.491 212.198C224.434 211.451 224.708 210.739 225.242 210.246C226.179 209.38 226.77 208.195 226.905 206.908C226.966 206.322 227.237 205.783 227.667 205.391Z" fill="black"/>
<path d="M224.709 202.364C226.701 202.364 228.321 200.743 228.321 198.752C228.321 196.76 226.701 195.14 224.709 195.14C222.718 195.14 221.097 196.76 221.097 198.752C221.097 200.743 222.718 202.364 224.709 202.364ZM224.709 197.488C225.406 197.488 225.973 198.055 225.973 198.752C225.973 199.448 225.406 200.015 224.709 200.015C224.013 200.015 223.446 199.448 223.446 198.752C223.446 198.055 224.013 197.488 224.709 197.488Z" fill="black"/>
<path d="M232.966 202.364C234.958 202.364 236.578 200.743 236.578 198.752C236.578 196.76 234.958 195.14 232.966 195.14C230.974 195.14 229.354 196.76 229.354 198.752C229.354 200.743 230.974 202.364 232.966 202.364ZM232.966 197.488C233.663 197.488 234.23 198.055 234.23 198.752C234.23 199.448 233.663 200.015 232.966 200.015C232.269 200.015 231.703 199.448 231.703 198.752C231.703 198.055 232.269 197.488 232.966 197.488Z" fill="black"/>
<path d="M218.517 208.556C220.509 208.556 222.129 206.936 222.129 204.944C222.129 202.952 220.509 201.332 218.517 201.332C216.526 201.332 214.905 202.952 214.905 204.944C214.905 206.936 216.526 208.556 218.517 208.556ZM218.517 203.68C219.214 203.68 219.781 204.247 219.781 204.944C219.781 205.64 219.214 206.207 218.517 206.207C217.821 206.207 217.254 205.64 217.254 204.944C217.254 204.247 217.821 203.68 218.517 203.68Z" fill="black"/>
<path d="M235.546 204.944C235.546 206.936 237.166 208.556 239.158 208.556C241.15 208.556 242.77 206.936 242.77 204.944C242.77 202.952 241.15 201.332 239.158 201.332C237.166 201.332 235.546 202.952 235.546 204.944ZM239.158 203.68C239.855 203.68 240.422 204.247 240.422 204.944C240.422 205.641 239.855 206.207 239.158 206.207C238.461 206.207 237.894 205.641 237.894 204.944C237.894 204.247 238.461 203.68 239.158 203.68Z" fill="black"/>
<path d="M181.323 189.399C181.232 190.261 180.833 191.059 180.199 191.645C178.805 192.933 178.09 194.787 178.238 196.731C178.465 199.725 180.799 202.14 183.667 202.348C183.807 202.358 183.947 202.363 184.086 202.363C184.815 202.363 185.526 202.224 186.205 201.947C186.993 201.627 187.861 201.627 188.649 201.947C189.456 202.276 190.308 202.411 191.182 202.348C194.023 202.145 196.357 199.759 196.611 196.797C196.796 194.644 195.917 192.592 194.26 191.309C193.54 190.752 193.07 189.966 192.937 189.096C192.718 187.671 192.018 186.364 190.964 185.417C188.776 183.45 185.484 183.461 183.307 185.443C182.188 186.461 181.483 187.866 181.323 189.399ZM185.277 187.808C185.81 187.323 186.48 187.08 187.15 187.08C187.814 187.08 188.477 187.318 189.008 187.794C189.532 188.266 189.866 188.887 189.974 189.591C190.232 191.276 191.12 192.781 192.474 193.829C193.284 194.456 193.713 195.461 193.623 196.516C193.499 197.958 192.362 199.12 190.977 199.219C190.548 199.25 190.13 199.184 189.737 199.024C188.247 198.418 186.606 198.418 185.117 199.024C184.723 199.185 184.305 199.25 183.874 199.219C182.477 199.118 181.34 197.942 181.229 196.483C181.157 195.53 181.506 194.624 182.186 193.995C183.381 192.891 184.134 191.38 184.305 189.741C184.383 188.994 184.729 188.307 185.277 187.808Z" fill="black"/>
<path d="M181.507 183.949C184.046 183.949 186.112 181.884 186.112 179.345C186.112 176.807 184.046 174.742 181.507 174.742C178.969 174.742 176.903 176.807 176.903 179.345C176.903 181.884 178.969 183.949 181.507 183.949ZM181.507 177.735C182.396 177.735 183.118 178.457 183.118 179.345C183.118 180.233 182.396 180.956 181.507 180.956C180.619 180.956 179.897 180.233 179.897 179.345C179.897 178.457 180.619 177.735 181.507 177.735Z" fill="black"/>
<path d="M192.031 183.949C194.57 183.949 196.635 181.884 196.635 179.345C196.635 176.807 194.57 174.742 192.031 174.742C189.493 174.742 187.427 176.807 187.427 179.345C187.427 181.884 189.493 183.949 192.031 183.949ZM192.031 177.735C192.919 177.735 193.642 178.457 193.642 179.345C193.642 180.233 192.919 180.956 192.031 180.956C191.143 180.956 190.421 180.233 190.421 179.345C190.421 178.457 191.143 177.735 192.031 177.735Z" fill="black"/>
<path d="M173.614 191.841C176.153 191.841 178.218 189.776 178.218 187.237C178.218 184.699 176.153 182.634 173.614 182.634C171.076 182.634 169.01 184.699 169.01 187.237C169.01 189.776 171.076 191.841 173.614 191.841ZM173.614 185.627C174.502 185.627 175.225 186.349 175.225 187.237C175.225 188.125 174.502 188.847 173.614 188.847C172.726 188.847 172.004 188.125 172.004 187.237C172.004 186.349 172.726 185.627 173.614 185.627Z" fill="black"/>
<path d="M195.32 187.237C195.32 189.776 197.385 191.841 199.924 191.841C202.463 191.841 204.528 189.776 204.528 187.237C204.528 184.699 202.463 182.634 199.924 182.634C197.385 182.634 195.32 184.699 195.32 187.237ZM199.924 185.627C200.812 185.627 201.534 186.349 201.534 187.237C201.534 188.125 200.812 188.848 199.924 188.848C199.036 188.848 198.313 188.125 198.313 187.237C198.313 186.35 199.036 185.627 199.924 185.627Z" fill="black"/>
<circle cx="200" cy="200" r="197.5" stroke="#FCDCC7" stroke-width="5" stroke-linecap="round" stroke-linejoin="round" stroke-dasharray="10 30"/>
</svg>
