<svg width="400" height="400" viewBox="0 0 400 400" fill="none" xmlns="http://www.w3.org/2000/svg">
<g filter="url(#filter0_d_1181_155)">
<g clip-path="url(#clip0_1181_155)">
<rect x="89" y="86" width="221.233" height="227.59" rx="6.35727" fill="#FFD2B5"/>
<rect x="278.34" y="278.57" width="31.4894" height="31.4894" fill="#FAFAFA" stroke="#DFDFDF" stroke-width="0.80742"/>
<path d="M291.541 295.951H294.858V297.396H295.67V295.951H296.633V295.194H295.67V290.349H294.637L291.541 295.249V295.951ZM294.858 295.194H292.463V295.139L294.803 291.436H294.858V295.194Z" fill="#A0A0A0"/>
<rect x="246.85" y="278.57" width="31.4894" height="31.4894" fill="#FAFAFA" stroke="#DFDFDF" stroke-width="0.80742"/>
<path d="M262.621 297.492C263.987 297.492 265.002 296.635 265.002 295.483C265.002 294.588 264.472 293.938 263.585 293.79V293.735C264.297 293.518 264.741 292.933 264.741 292.138C264.741 291.141 263.953 290.253 262.649 290.253C261.431 290.253 260.419 291.003 260.378 292.111H261.204C261.235 291.409 261.902 290.996 262.635 290.996C263.413 290.996 263.915 291.467 263.915 292.18C263.915 292.923 263.334 293.405 262.497 293.405H261.933V294.161H262.497C263.567 294.161 264.163 294.705 264.163 295.483C264.163 296.229 263.512 296.735 262.608 296.735C261.792 296.735 261.145 296.315 261.094 295.634H260.227C260.278 296.742 261.255 297.492 262.621 297.492Z" fill="#A0A0A0"/>
<rect x="215.361" y="278.57" width="31.4894" height="31.4894" fill="#FAFAFA" stroke="#DFDFDF" stroke-width="0.80742"/>
<path d="M228.902 297.396H233.347V296.639H230.072V296.584L231.655 294.891C232.866 293.594 233.223 292.988 233.223 292.207C233.223 291.12 232.343 290.253 231.104 290.253C229.869 290.253 228.929 291.092 228.929 292.331H229.741C229.741 291.529 230.261 290.996 231.076 290.996C231.84 290.996 232.425 291.464 232.425 292.207C232.425 292.857 232.043 293.339 231.228 294.23L228.902 296.776V297.396Z" fill="#A0A0A0"/>
<rect x="183.872" y="278.57" width="31.4894" height="31.4894" fill="#FAFAFA" stroke="#DFDFDF" stroke-width="0.80742"/>
<path d="M200.571 290.349H199.718L197.956 291.519V292.386L199.677 291.244H199.718V297.396H200.571V290.349Z" fill="#A0A0A0"/>
<rect x="152.383" y="278.57" width="31.4894" height="31.4894" fill="white" stroke="#DFDFDF" stroke-width="0.80742"/>
<path d="M165.019 297.492C166.385 297.492 167.4 296.635 167.4 295.483C167.4 294.588 166.87 293.938 165.983 293.79V293.735C166.695 293.518 167.139 292.933 167.139 292.138C167.139 291.141 166.351 290.253 165.047 290.253C163.829 290.253 162.817 291.003 162.776 292.111H163.602C163.633 291.409 164.3 290.996 165.033 290.996C165.811 290.996 166.313 291.467 166.313 292.18C166.313 292.923 165.732 293.405 164.896 293.405H164.331V294.161H164.896C165.966 294.161 166.561 294.705 166.561 295.483C166.561 296.229 165.911 296.735 165.006 296.735C164.19 296.735 163.543 296.315 163.492 295.634H162.625C162.676 296.742 163.653 297.492 165.019 297.492ZM172.215 290.349H171.361L169.6 291.519V292.386L171.32 291.244H171.361V297.396H172.215V290.349Z" fill="#171E24"/>
<rect x="120.893" y="278.57" width="31.4894" height="31.4894" fill="white" stroke="#DFDFDF" stroke-width="0.80742"/>
<path d="M133.53 297.492C134.896 297.492 135.911 296.635 135.911 295.483C135.911 294.588 135.381 293.938 134.494 293.79V293.735C135.206 293.518 135.65 292.933 135.65 292.138C135.65 291.141 134.862 290.253 133.558 290.253C132.34 290.253 131.328 291.003 131.287 292.111H132.113C132.144 291.409 132.811 290.996 133.544 290.996C134.321 290.996 134.824 291.467 134.824 292.18C134.824 292.923 134.242 293.405 133.406 293.405H132.842V294.161H133.406C134.476 294.161 135.072 294.705 135.072 295.483C135.072 296.229 134.421 296.735 133.516 296.735C132.701 296.735 132.054 296.315 132.002 295.634H131.135C131.187 296.742 132.164 297.492 133.53 297.492ZM139.776 297.492C141.331 297.492 142.226 296.174 142.226 293.872C142.226 291.588 141.317 290.253 139.776 290.253C138.234 290.253 137.326 291.588 137.326 293.872C137.326 296.174 138.221 297.492 139.776 297.492ZM139.776 296.735C138.751 296.735 138.152 295.706 138.152 293.872C138.152 292.042 138.757 290.996 139.776 290.996C140.794 290.996 141.4 292.042 141.4 293.872C141.4 295.706 140.801 296.735 139.776 296.735Z" fill="#171E24"/>
<rect x="89.4037" y="278.57" width="31.4894" height="31.4894" fill="white" stroke="#DFDFDF" stroke-width="0.80742"/>
<path d="M99.8108 297.396H104.256V296.639H100.981V296.584L102.563 294.891C103.775 293.594 104.132 292.988 104.132 292.207C104.132 291.12 103.252 290.253 102.013 290.253C100.778 290.253 99.8383 291.092 99.8383 292.331H100.65C100.65 291.529 101.17 290.996 101.985 290.996C102.749 290.996 103.334 291.464 103.334 292.207C103.334 292.857 102.952 293.339 102.137 294.23L99.8108 296.776V297.396ZM108.231 290.253C106.8 290.236 105.878 291.313 105.878 292.606C105.878 293.969 106.882 294.946 108.093 294.946C108.823 294.946 109.442 294.588 109.828 294.01H109.883C109.883 295.744 109.208 296.735 108.121 296.735C107.378 296.735 106.924 296.267 106.772 295.62H105.933C106.098 296.735 106.937 297.492 108.121 297.492C109.704 297.492 110.681 296.088 110.681 293.583C110.681 290.996 109.387 290.267 108.231 290.253ZM108.231 291.01C109.112 291.01 109.759 291.767 109.759 292.593C109.759 293.432 109.071 294.189 108.204 294.189C107.336 294.189 106.703 293.487 106.703 292.606C106.703 291.725 107.364 291.01 108.231 291.01Z" fill="#171E24"/>
<rect x="278.34" y="247.08" width="31.4894" height="31.4894" fill="white" stroke="#DFDFDF" stroke-width="0.80742"/>
<path d="M288.747 265.906H293.193V265.149H289.917V265.094L291.5 263.401C292.711 262.104 293.069 261.499 293.069 260.718C293.069 259.63 292.188 258.763 290.949 258.763C289.714 258.763 288.775 259.603 288.775 260.842H289.587C289.587 260.04 290.106 259.507 290.922 259.507C291.686 259.507 292.271 259.974 292.271 260.718C292.271 261.368 291.889 261.85 291.073 262.741L288.747 265.287V265.906ZM297.223 266.003C298.63 266.003 299.611 265.18 299.617 264.035C299.611 263.143 299.015 262.386 298.255 262.245V262.204C298.915 262.032 299.349 261.385 299.356 260.635C299.349 259.562 298.448 258.763 297.223 258.763C295.984 258.763 295.083 259.562 295.089 260.635C295.083 261.385 295.516 262.032 296.19 262.204V262.245C295.416 262.386 294.821 263.143 294.828 264.035C294.821 265.18 295.802 266.003 297.223 266.003ZM297.223 265.246C296.256 265.246 295.661 264.75 295.667 263.993C295.661 263.198 296.318 262.631 297.223 262.631C298.114 262.631 298.771 263.198 298.778 263.993C298.771 264.75 298.176 265.246 297.223 265.246ZM297.223 261.901C296.452 261.901 295.908 261.42 295.915 260.69C295.908 259.974 296.431 259.507 297.223 259.507C298 259.507 298.523 259.974 298.53 260.69C298.523 261.42 297.98 261.901 297.223 261.901Z" fill="#171E24"/>
<rect x="246.85" y="247.08" width="31.4894" height="31.4894" fill="white" stroke="#DFDFDF" stroke-width="0.80742"/>
<path d="M257.258 265.906H261.703V265.149H258.428V265.094L260.011 263.401C261.222 262.104 261.58 261.499 261.58 260.718C261.58 259.63 260.699 258.763 259.46 258.763C258.225 258.763 257.286 259.603 257.286 260.842H258.098C258.098 260.04 258.617 259.507 259.433 259.507C260.196 259.507 260.781 259.974 260.781 260.718C260.781 261.368 260.399 261.85 259.584 262.741L257.258 265.287V265.906ZM263.917 265.906H264.811L267.949 259.658V258.86H263.435V259.617H267.068V259.672L263.917 265.906Z" fill="#171E24"/>
<rect x="215.361" y="247.08" width="31.4894" height="31.4894" fill="white" stroke="#DFDFDF" stroke-width="0.80742"/>
<path d="M225.768 265.906H230.214V265.149H226.938V265.094L228.521 263.401C229.732 262.104 230.09 261.499 230.09 260.718C230.09 259.63 229.209 258.763 227.97 258.763C226.735 258.763 225.796 259.603 225.796 260.842H226.608C226.608 260.04 227.127 259.507 227.943 259.507C228.707 259.507 229.292 259.974 229.292 260.718C229.292 261.368 228.91 261.85 228.094 262.741L225.768 265.287V265.906ZM234.285 266.003C235.709 266.02 236.638 264.946 236.638 263.635C236.638 262.273 235.63 261.296 234.423 261.296C233.697 261.296 233.074 261.65 232.688 262.232H232.633C232.637 260.515 233.304 259.52 234.395 259.52C235.138 259.52 235.586 259.988 235.744 260.621H236.583C236.411 259.527 235.579 258.763 234.395 258.763C232.809 258.763 231.835 260.167 231.835 262.658C231.835 265.263 233.129 265.989 234.285 266.003ZM234.285 265.246C233.401 265.246 232.754 264.492 232.757 263.649C232.761 262.806 233.439 262.053 234.312 262.053C235.176 262.053 235.813 262.761 235.813 263.635C235.813 264.53 235.149 265.246 234.285 265.246Z" fill="#171E24"/>
<rect x="183.872" y="247.08" width="31.4894" height="31.4894" fill="white" stroke="#DFDFDF" stroke-width="0.80742"/>
<path d="M194.279 265.906H198.724V265.149H195.449V265.094L197.032 263.401C198.243 262.104 198.601 261.499 198.601 260.718C198.601 259.63 197.72 258.763 196.481 258.763C195.246 258.763 194.307 259.603 194.307 260.842H195.119C195.119 260.04 195.638 259.507 196.454 259.507C197.217 259.507 197.802 259.974 197.802 260.718C197.802 261.368 197.42 261.85 196.605 262.741L194.279 265.287V265.906ZM202.727 266.003C204.069 266.003 205.053 265.012 205.053 263.663C205.053 262.297 204.103 261.296 202.809 261.296C202.335 261.296 201.874 261.464 201.585 261.695H201.543L201.791 259.617H204.736V258.86H201.075L200.649 262.328L201.447 262.424C201.739 262.214 202.238 262.063 202.672 262.066C203.57 262.073 204.227 262.755 204.227 263.677C204.227 264.582 203.594 265.246 202.727 265.246C202.004 265.246 201.43 264.781 201.364 264.145H200.539C200.59 265.218 201.516 266.003 202.727 266.003Z" fill="#171E24"/>
<rect x="152.383" y="247.08" width="31.4894" height="31.4894" fill="white" stroke="#DFDFDF" stroke-width="0.80742"/>
<path d="M162.79 265.906H167.235V265.149H163.96V265.094L165.542 263.401C166.754 262.104 167.111 261.499 167.111 260.718C167.111 259.63 166.231 258.763 164.992 258.763C163.757 258.763 162.817 259.603 162.817 260.842H163.629C163.629 260.04 164.149 259.507 164.964 259.507C165.728 259.507 166.313 259.974 166.313 260.718C166.313 261.368 165.931 261.85 165.116 262.741L162.79 265.287V265.906ZM168.719 264.461H172.036V265.906H172.848V264.461H173.811V263.704H172.848V258.86H171.816L168.719 263.759V264.461ZM172.036 263.704H169.641V263.649L171.981 259.947H172.036V263.704Z" fill="#171E24"/>
<rect x="120.893" y="247.08" width="31.4894" height="31.4894" fill="white" stroke="#DFDFDF" stroke-width="0.80742"/>
<path d="M131.301 265.906H135.746V265.149H132.47V265.094L134.053 263.401C135.264 262.104 135.622 261.499 135.622 260.718C135.622 259.63 134.741 258.763 133.503 258.763C132.267 258.763 131.328 259.603 131.328 260.842H132.14C132.14 260.04 132.66 259.507 133.475 259.507C134.239 259.507 134.824 259.974 134.824 260.718C134.824 261.368 134.442 261.85 133.626 262.741L131.301 265.287V265.906ZM139.803 266.003C141.169 266.003 142.184 265.146 142.184 263.993C142.184 263.099 141.655 262.448 140.767 262.3V262.245C141.479 262.029 141.923 261.444 141.923 260.649C141.923 259.651 141.135 258.763 139.831 258.763C138.613 258.763 137.601 259.513 137.56 260.621H138.386C138.417 259.919 139.084 259.507 139.817 259.507C140.595 259.507 141.097 259.978 141.097 260.69C141.097 261.433 140.516 261.915 139.68 261.915H139.115V262.672H139.68C140.75 262.672 141.345 263.216 141.345 263.993C141.345 264.74 140.695 265.246 139.79 265.246C138.974 265.246 138.327 264.826 138.276 264.145H137.409C137.46 265.253 138.437 266.003 139.803 266.003Z" fill="#171E24"/>
<rect x="89.4037" y="247.08" width="31.4894" height="31.4894" fill="white" stroke="#DFDFDF" stroke-width="0.80742"/>
<path d="M99.8108 265.906H104.256V265.149H100.981V265.094L102.563 263.401C103.775 262.104 104.132 261.499 104.132 260.718C104.132 259.63 103.252 258.763 102.013 258.763C100.778 258.763 99.8383 259.603 99.8383 260.842H100.65C100.65 260.04 101.17 259.507 101.985 259.507C102.749 259.507 103.334 259.974 103.334 260.718C103.334 261.368 102.952 261.85 102.137 262.741L99.8108 265.287V265.906ZM106.084 265.906H110.529V265.149H107.254V265.094L108.837 263.401C110.048 262.104 110.406 261.499 110.406 260.718C110.406 259.63 109.525 258.763 108.286 258.763C107.051 258.763 106.112 259.603 106.112 260.842H106.924C106.924 260.04 107.443 259.507 108.259 259.507C109.022 259.507 109.607 259.974 109.607 260.718C109.607 261.368 109.225 261.85 108.41 262.741L106.084 265.287V265.906Z" fill="#171E24"/>
<rect x="278.34" y="215.591" width="31.4894" height="31.4894" fill="white" stroke="#DFDFDF" stroke-width="0.80742"/>
<path d="M288.747 234.417H293.193V233.66H289.917V233.605L291.5 231.912C292.711 230.615 293.069 230.009 293.069 229.228C293.069 228.141 292.188 227.274 290.949 227.274C289.714 227.274 288.775 228.114 288.775 229.352H289.587C289.587 228.551 290.106 228.017 290.922 228.017C291.686 228.017 292.271 228.485 292.271 229.228C292.271 229.879 291.889 230.36 291.073 231.252L288.747 233.798V234.417ZM298.172 227.37H297.319L295.557 228.54V229.407L297.278 228.265H297.319V234.417H298.172V227.37Z" fill="#171E24"/>
<rect x="246.85" y="215.591" width="31.4894" height="31.4894" fill="white" stroke="#DFDFDF" stroke-width="0.80742"/>
<path d="M257.258 234.417H261.703V233.66H258.428V233.605L260.011 231.912C261.222 230.615 261.58 230.009 261.58 229.228C261.58 228.141 260.699 227.274 259.46 227.274C258.225 227.274 257.286 228.114 257.286 229.352H258.098C258.098 228.551 258.617 228.017 259.433 228.017C260.196 228.017 260.781 228.485 260.781 229.228C260.781 229.879 260.399 230.36 259.584 231.252L257.258 233.798V234.417ZM265.733 234.513C267.289 234.513 268.183 233.196 268.183 230.894C268.183 228.609 267.275 227.274 265.733 227.274C264.192 227.274 263.284 228.609 263.284 230.894C263.284 233.196 264.178 234.513 265.733 234.513ZM265.733 233.756C264.708 233.756 264.109 232.728 264.109 230.894C264.109 229.063 264.715 228.017 265.733 228.017C266.752 228.017 267.357 229.063 267.357 230.894C267.357 232.728 266.759 233.756 265.733 233.756Z" fill="#171E24"/>
<rect x="215.361" y="215.591" width="31.4894" height="31.4894" fill="white" stroke="#DFDFDF" stroke-width="0.80742"/>
<path d="M229.037 227.37H228.184L226.422 228.54V229.407L228.143 228.265H228.184V234.417H229.037V227.37ZM233.307 227.274C231.876 227.257 230.954 228.334 230.954 229.628C230.954 230.99 231.959 231.967 233.17 231.967C233.899 231.967 234.518 231.609 234.904 231.031H234.959C234.959 232.765 234.285 233.756 233.197 233.756C232.454 233.756 232 233.288 231.848 232.642H231.009C231.174 233.756 232.014 234.513 233.197 234.513C234.78 234.513 235.757 233.11 235.757 230.605C235.757 228.017 234.463 227.288 233.307 227.274ZM233.307 228.031C234.188 228.031 234.835 228.788 234.835 229.614C234.835 230.453 234.147 231.21 233.28 231.21C232.413 231.21 231.78 230.508 231.78 229.628C231.78 228.747 232.44 228.031 233.307 228.031Z" fill="#171E24"/>
<rect x="183.872" y="215.591" width="31.4894" height="31.4894" fill="white" stroke="#DFDFDF" stroke-width="0.80742"/>
<path d="M197.431 227.37H196.577L194.816 228.54V229.407L196.536 228.265H196.577V234.417H197.431V227.37ZM202.754 234.513C204.162 234.513 205.142 233.691 205.149 232.545C205.142 231.654 204.547 230.897 203.787 230.756V230.715C204.447 230.543 204.881 229.896 204.888 229.146C204.881 228.072 203.979 227.274 202.754 227.274C201.516 227.274 200.614 228.072 200.621 229.146C200.614 229.896 201.048 230.543 201.722 230.715V230.756C200.948 230.897 200.353 231.654 200.36 232.545C200.353 233.691 201.333 234.513 202.754 234.513ZM202.754 233.756C201.788 233.756 201.192 233.261 201.199 232.504C201.192 231.709 201.849 231.141 202.754 231.141C203.646 231.141 204.303 231.709 204.31 232.504C204.303 233.261 203.707 233.756 202.754 233.756ZM202.754 230.412C201.984 230.412 201.44 229.93 201.447 229.201C201.44 228.485 201.963 228.017 202.754 228.017C203.532 228.017 204.055 228.485 204.062 229.201C204.055 229.93 203.511 230.412 202.754 230.412Z" fill="#171E24"/>
<rect x="152.383" y="215.591" width="31.4894" height="31.4894" fill="white" stroke="#DFDFDF" stroke-width="0.80742"/>
<path d="M165.942 227.37H165.088L163.327 228.54V229.407L165.047 228.265H165.088V234.417H165.942V227.37ZM169.448 234.417H170.343L173.481 228.169V227.37H168.967V228.127H172.6V228.182L169.448 234.417Z" fill="#171E24"/>
<rect x="120.893" y="215.591" width="31.4894" height="31.4894" fill="white" stroke="#DFDFDF" stroke-width="0.80742"/>
<path d="M134.452 227.37H133.599L131.837 228.54V229.407L133.558 228.265H133.599V234.417H134.452V227.37ZM139.817 234.513C141.242 234.531 142.171 233.457 142.171 232.146C142.171 230.784 141.162 229.806 139.955 229.806C139.229 229.806 138.606 230.161 138.221 230.742H138.166C138.169 229.025 138.837 228.031 139.927 228.031C140.67 228.031 141.118 228.499 141.276 229.132H142.116C141.944 228.038 141.111 227.274 139.927 227.274C138.341 227.274 137.367 228.678 137.367 231.169C137.367 233.774 138.661 234.5 139.817 234.513ZM139.817 233.756C138.933 233.756 138.286 233.003 138.289 232.16C138.293 231.317 138.971 230.563 139.845 230.563C140.708 230.563 141.345 231.272 141.345 232.146C141.345 233.041 140.681 233.756 139.817 233.756Z" fill="#171E24"/>
<rect x="89.4037" y="215.591" width="31.4894" height="31.4894" fill="white" stroke="#DFDFDF" stroke-width="0.80742"/>
<path d="M102.962 227.37H102.109L100.348 228.54V229.407L102.068 228.265H102.109V234.417H102.962V227.37ZM108.259 234.513C109.6 234.513 110.585 233.522 110.585 232.174C110.585 230.808 109.635 229.806 108.341 229.806C107.866 229.806 107.405 229.975 107.116 230.206H107.075L107.323 228.127H110.268V227.37H106.607L106.18 230.839L106.979 230.935C107.271 230.725 107.77 230.574 108.204 230.577C109.102 230.584 109.759 231.265 109.759 232.187C109.759 233.092 109.126 233.756 108.259 233.756C107.536 233.756 106.961 233.292 106.896 232.655H106.07C106.122 233.729 107.047 234.513 108.259 234.513Z" fill="#171E24"/>
<rect x="278.34" y="184.102" width="31.4894" height="31.4894" fill="white" stroke="#DFDFDF" stroke-width="0.80742"/>
<path d="M291.899 195.881H291.046L289.284 197.051V197.918L291.004 196.776H291.046V202.928H291.899V195.881ZM294.677 201.483H297.993V202.928H298.805V201.483H299.769V200.726H298.805V195.881H297.773L294.677 200.781V201.483ZM297.993 200.726H295.599V200.671L297.938 196.968H297.993V200.726Z" fill="#171E24"/>
<rect x="246.85" y="184.102" width="31.4894" height="31.4894" fill="white" stroke="#DFDFDF" stroke-width="0.80742"/>
<path d="M260.41 195.881H259.556L257.795 197.051V197.918L259.515 196.776H259.556V202.928H260.41V195.881ZM265.761 203.024C267.127 203.024 268.142 202.167 268.142 201.015C268.142 200.12 267.612 199.47 266.724 199.322V199.267C267.437 199.05 267.88 198.465 267.88 197.67C267.88 196.673 267.092 195.785 265.788 195.785C264.57 195.785 263.559 196.535 263.518 197.643H264.343C264.374 196.941 265.042 196.528 265.775 196.528C266.552 196.528 267.055 196.999 267.055 197.712C267.055 198.455 266.473 198.937 265.637 198.937H265.073V199.693H265.637C266.707 199.693 267.302 200.237 267.302 201.015C267.302 201.761 266.652 202.267 265.747 202.267C264.932 202.267 264.285 201.847 264.233 201.166H263.366C263.418 202.274 264.395 203.024 265.761 203.024Z" fill="#171E24"/>
<rect x="215.361" y="184.102" width="31.4894" height="31.4894" fill="white" stroke="#DFDFDF" stroke-width="0.80742"/>
<path d="M228.92 195.881H228.067L226.305 197.051V197.918L228.025 196.776H228.067V202.928H228.92V195.881ZM232.042 202.928H236.487V202.171H233.211V202.116L234.794 200.423C236.005 199.126 236.363 198.52 236.363 197.739C236.363 196.652 235.482 195.785 234.244 195.785C233.008 195.785 232.069 196.624 232.069 197.863H232.881C232.881 197.061 233.401 196.528 234.216 196.528C234.98 196.528 235.565 196.996 235.565 197.739C235.565 198.389 235.183 198.871 234.368 199.762L232.042 202.308V202.928Z" fill="#171E24"/>
<rect x="183.872" y="184.102" width="31.4894" height="31.4894" fill="white" stroke="#DFDFDF" stroke-width="0.80742"/>
<path d="M197.431 195.881H196.577L194.816 197.051V197.918L196.536 196.776H196.577V202.928H197.431V195.881ZM203.704 195.881H202.851L201.089 197.051V197.918L202.809 196.776H202.851V202.928H203.704V195.881Z" fill="#171E24"/>
<rect x="152.383" y="184.102" width="31.4894" height="31.4894" fill="white" stroke="#DFDFDF" stroke-width="0.80742"/>
<path d="M165.942 195.881H165.088L163.327 197.051V197.918L165.047 196.776H165.088V202.928H165.942V195.881ZM171.265 203.024C172.82 203.024 173.715 201.706 173.715 199.404C173.715 197.12 172.807 195.785 171.265 195.785C169.724 195.785 168.815 197.12 168.815 199.404C168.815 201.706 169.71 203.024 171.265 203.024ZM171.265 202.267C170.24 202.267 169.641 201.238 169.641 199.404C169.641 197.574 170.247 196.528 171.265 196.528C172.284 196.528 172.889 197.574 172.889 199.404C172.889 201.238 172.29 202.267 171.265 202.267Z" fill="#171E24"/>
<rect x="120.893" y="184.102" width="31.4894" height="31.4894" fill="white" stroke="#DFDFDF" stroke-width="0.80742"/>
<path d="M136.584 195.785C135.153 195.768 134.231 196.845 134.231 198.138C134.231 199.501 135.235 200.478 136.447 200.478C137.176 200.478 137.795 200.12 138.181 199.542H138.236C138.236 201.276 137.561 202.267 136.474 202.267C135.731 202.267 135.277 201.799 135.125 201.152H134.286C134.451 202.267 135.29 203.024 136.474 203.024C138.057 203.024 139.034 201.62 139.034 199.115C139.034 196.528 137.74 195.799 136.584 195.785ZM136.584 196.542C137.465 196.542 138.112 197.299 138.112 198.125C138.112 198.964 137.424 199.721 136.557 199.721C135.69 199.721 135.057 199.019 135.057 198.138C135.057 197.257 135.717 196.542 136.584 196.542Z" fill="#171E24"/>
<rect x="89.4037" y="184.102" width="31.4894" height="31.4894" fill="white" stroke="#DFDFDF" stroke-width="0.80742"/>
<path d="M105.149 203.024C106.557 203.024 107.537 202.202 107.544 201.056C107.537 200.165 106.942 199.408 106.182 199.267V199.226C106.842 199.053 107.276 198.407 107.283 197.657C107.276 196.583 106.374 195.785 105.149 195.785C103.911 195.785 103.009 196.583 103.016 197.657C103.009 198.407 103.443 199.053 104.117 199.226V199.267C103.343 199.408 102.748 200.165 102.755 201.056C102.748 202.202 103.728 203.024 105.149 203.024ZM105.149 202.267C104.183 202.267 103.587 201.772 103.594 201.015C103.587 200.22 104.245 199.652 105.149 199.652C106.041 199.652 106.698 200.22 106.705 201.015C106.698 201.772 106.103 202.267 105.149 202.267ZM105.149 198.923C104.379 198.923 103.835 198.441 103.842 197.712C103.835 196.996 104.358 196.528 105.149 196.528C105.927 196.528 106.45 196.996 106.457 197.712C106.45 198.441 105.906 198.923 105.149 198.923Z" fill="#171E24"/>
<rect x="278.34" y="152.612" width="31.4894" height="31.4894" fill="white" stroke="#DFDFDF" stroke-width="0.80742"/>
<path d="M292.269 171.438H293.164L296.302 165.19V164.392H291.788V165.149H295.421V165.204L292.269 171.438Z" fill="#171E24"/>
<rect x="246.85" y="152.612" width="31.4894" height="31.4894" fill="white" stroke="#DFDFDF" stroke-width="0.80742"/>
<path d="M262.638 171.535C264.063 171.552 264.991 170.478 264.991 169.167C264.991 167.805 263.983 166.828 262.776 166.828C262.05 166.828 261.427 167.182 261.042 167.764H260.987C260.99 166.047 261.657 165.052 262.748 165.052C263.491 165.052 263.939 165.52 264.097 166.153H264.936C264.764 165.059 263.932 164.295 262.748 164.295C261.162 164.295 260.188 165.699 260.188 168.19C260.188 170.795 261.482 171.521 262.638 171.535ZM262.638 170.778C261.754 170.778 261.107 170.024 261.11 169.181C261.114 168.338 261.792 167.585 262.666 167.585C263.529 167.585 264.166 168.293 264.166 169.167C264.166 170.062 263.502 170.778 262.638 170.778Z" fill="#171E24"/>
<rect x="215.361" y="152.612" width="31.4894" height="31.4894" fill="white" stroke="#DFDFDF" stroke-width="0.80742"/>
<path d="M231.079 171.535C232.421 171.535 233.405 170.544 233.405 169.195C233.405 167.829 232.456 166.828 231.162 166.828C230.687 166.828 230.226 166.996 229.937 167.227H229.896L230.144 165.149H233.089V164.392H229.428L229.001 167.86L229.8 167.956C230.092 167.746 230.591 167.595 231.024 167.598C231.922 167.605 232.58 168.287 232.58 169.209C232.58 170.114 231.947 170.778 231.079 170.778C230.357 170.778 229.782 170.313 229.717 169.677H228.891C228.943 170.75 229.868 171.535 231.079 171.535Z" fill="#171E24"/>
<rect x="183.872" y="152.612" width="31.4894" height="31.4894" fill="white" stroke="#DFDFDF" stroke-width="0.80742"/>
<path d="M197.072 169.993H200.388V171.438H201.2V169.993H202.164V169.236H201.2V164.392H200.168L197.072 169.291V169.993ZM200.388 169.236H197.994V169.181L200.333 165.479H200.388V169.236Z" fill="#171E24"/>
<rect x="152.383" y="152.612" width="31.4894" height="31.4894" fill="white" stroke="#DFDFDF" stroke-width="0.80742"/>
<path d="M168.156 171.535C169.522 171.535 170.537 170.678 170.537 169.525C170.537 168.631 170.007 167.98 169.119 167.832V167.777C169.832 167.561 170.276 166.976 170.276 166.181C170.276 165.183 169.488 164.295 168.184 164.295C166.966 164.295 165.954 165.045 165.913 166.153H166.738C166.769 165.451 167.437 165.039 168.17 165.039C168.947 165.039 169.45 165.51 169.45 166.222C169.45 166.965 168.868 167.447 168.032 167.447H167.468V168.204H168.032C169.102 168.204 169.697 168.748 169.697 169.525C169.697 170.272 169.047 170.778 168.142 170.778C167.327 170.778 166.68 170.358 166.628 169.677H165.761C165.813 170.784 166.79 171.535 168.156 171.535Z" fill="#171E24"/>
<rect x="120.893" y="152.612" width="31.4894" height="31.4894" fill="white" stroke="#DFDFDF" stroke-width="0.80742"/>
<path d="M134.437 171.438H138.883V170.681H135.607V170.626L137.19 168.933C138.401 167.636 138.759 167.031 138.759 166.25C138.759 165.162 137.878 164.295 136.639 164.295C135.404 164.295 134.465 165.135 134.465 166.374H135.277C135.277 165.572 135.796 165.039 136.612 165.039C137.376 165.039 137.96 165.506 137.96 166.25C137.96 166.9 137.579 167.382 136.763 168.273L134.437 170.819V171.438Z" fill="#171E24"/>
<rect x="89.4037" y="152.612" width="31.4894" height="31.4894" fill="white" stroke="#DFDFDF" stroke-width="0.80742"/>
<path d="M106.099 164.392H105.246L103.484 165.562V166.429L105.205 165.286H105.246V171.438H106.099V164.392Z" fill="#171E24"/>
<path d="M97.5928 139.949C99.7398 139.949 100.951 138.614 100.951 136.412C100.951 134.224 99.7398 132.902 97.6892 132.902H95.4183V139.949H97.5928ZM96.2716 139.192V133.659H97.6341C99.2857 133.659 100.125 134.705 100.125 136.412C100.125 138.132 99.2857 139.192 97.5378 139.192H96.2716ZM104.419 140.059C105.851 140.059 106.814 138.972 106.814 137.334C106.814 135.682 105.851 134.595 104.419 134.595C102.988 134.595 102.024 135.682 102.024 137.334C102.024 138.972 102.988 140.059 104.419 140.059ZM104.419 139.33C103.332 139.33 102.836 138.394 102.836 137.334C102.836 136.274 103.332 135.325 104.419 135.325C105.506 135.325 106.002 136.274 106.002 137.334C106.002 138.394 105.506 139.33 104.419 139.33ZM108.053 139.949H108.865V136.646C108.865 135.872 109.43 135.325 110.063 135.325C110.679 135.325 111.109 135.727 111.109 136.329V139.949H111.935V136.508C111.935 135.827 112.361 135.325 113.104 135.325C113.682 135.325 114.178 135.631 114.178 136.412V139.949H114.99V136.412C114.99 135.17 114.322 134.595 113.38 134.595C112.623 134.595 112.069 134.943 111.797 135.49H111.742C111.48 134.926 111.019 134.595 110.324 134.595C109.636 134.595 109.127 134.926 108.907 135.49H108.838V134.664H108.053V139.949Z" fill="#777777"/>
<path d="M132.484 134.664H133.309C133.272 133.601 132.291 132.806 130.929 132.806C129.58 132.806 128.52 133.59 128.52 134.774C128.52 135.724 129.208 136.288 130.309 136.604L131.176 136.852C131.919 137.059 132.58 137.32 132.58 138.022C132.58 138.793 131.837 139.302 130.86 139.302C130.02 139.302 129.277 138.93 129.208 138.132H128.327C128.41 139.288 129.346 140.073 130.86 140.073C132.484 140.073 133.406 139.178 133.406 138.036C133.406 136.714 132.153 136.288 131.424 136.095L130.708 135.902C130.185 135.765 129.346 135.49 129.346 134.733C129.346 134.058 129.965 133.563 130.901 133.563C131.754 133.563 132.401 133.969 132.484 134.664ZM136.915 140.059C137.988 140.059 138.772 139.522 139.02 138.724L138.236 138.504C138.029 139.054 137.551 139.329 136.915 139.329C135.961 139.329 135.304 138.714 135.266 137.582H139.103V137.237C139.103 135.269 137.933 134.595 136.832 134.595C135.401 134.595 134.451 135.724 134.451 137.348C134.451 138.972 135.387 140.059 136.915 140.059ZM135.266 136.88C135.321 136.057 135.903 135.324 136.832 135.324C137.713 135.324 138.277 135.985 138.277 136.88H135.266ZM142.471 142.041C143.737 142.041 144.756 141.463 144.756 140.1V134.664H143.971V135.503H143.889C143.71 135.228 143.38 134.595 142.347 134.595C141.012 134.595 140.09 135.655 140.09 137.279C140.09 138.93 141.054 139.866 142.334 139.866C143.366 139.866 143.696 139.261 143.875 138.972H143.944V140.045C143.944 140.926 143.325 141.325 142.471 141.325C141.511 141.325 141.174 140.819 140.957 140.527L140.31 140.981C140.641 141.535 141.291 142.041 142.471 142.041ZM142.444 139.137C141.425 139.137 140.902 138.366 140.902 137.265C140.902 136.191 141.412 135.324 142.444 135.324C143.435 135.324 143.958 136.123 143.958 137.265C143.958 138.435 143.421 139.137 142.444 139.137Z" fill="#777777"/>
<path d="M161.248 133.659H163.464V139.949H164.317V133.659H166.533V132.902H161.248V133.659ZM169.189 140.059C170.263 140.059 171.047 139.522 171.295 138.724L170.51 138.504C170.304 139.054 169.826 139.329 169.189 139.329C168.236 139.329 167.579 138.714 167.541 137.582H171.377V137.237C171.377 135.269 170.208 134.595 169.107 134.595C167.675 134.595 166.726 135.724 166.726 137.348C166.726 138.972 167.661 140.059 169.189 140.059ZM167.541 136.88C167.596 136.057 168.178 135.324 169.107 135.324C169.987 135.324 170.552 135.985 170.552 136.88H167.541ZM172.613 139.949H173.425V136.604C173.425 135.889 173.989 135.366 174.76 135.366C174.976 135.366 175.2 135.407 175.255 135.421V134.595C175.162 134.588 174.949 134.581 174.828 134.581C174.195 134.581 173.645 134.939 173.452 135.462H173.397V134.664H172.613V139.949Z" fill="#777777"/>
<path d="M197.18 136.425C197.18 134.196 195.873 132.806 194.07 132.806C192.267 132.806 190.96 134.196 190.96 136.425C190.96 138.655 192.267 140.045 194.07 140.045C194.531 140.045 194.958 139.956 195.34 139.784L195.956 140.609H196.891L195.973 139.388C196.723 138.772 197.18 137.747 197.18 136.425ZM193.795 137.747L194.841 139.116C194.6 139.202 194.342 139.247 194.07 139.247C192.79 139.247 191.785 138.256 191.785 136.425C191.785 134.595 192.79 133.604 194.07 133.604C195.35 133.604 196.355 134.595 196.355 136.425C196.355 137.489 196.017 138.266 195.481 138.734L194.731 137.747H193.795ZM201.836 137.788C201.836 138.779 201.079 139.233 200.473 139.233C199.799 139.233 199.317 138.738 199.317 137.967V134.664H198.505V138.022C198.505 139.371 199.221 140.018 200.212 140.018C201.01 140.018 201.533 139.591 201.781 139.054H201.836V139.949H202.648V134.664H201.836V137.788ZM205.69 140.073C206.612 140.073 207.094 139.577 207.259 139.233H207.3V139.949H208.112V136.467C208.112 134.788 206.832 134.595 206.158 134.595C205.36 134.595 204.452 134.87 204.039 135.834L204.809 136.109C204.988 135.724 205.411 135.311 206.186 135.311C206.932 135.311 207.3 135.706 207.3 136.384V136.412C207.3 136.804 206.901 136.77 205.938 136.893C204.957 137.021 203.887 137.237 203.887 138.449C203.887 139.481 204.685 140.073 205.69 140.073ZM205.814 139.343C205.167 139.343 204.699 139.054 204.699 138.49C204.699 137.871 205.264 137.678 205.897 137.595C206.241 137.554 207.163 137.458 207.3 137.293V138.036C207.3 138.696 206.777 139.343 205.814 139.343Z" fill="#777777"/>
<path d="M230.25 136.425C230.25 134.196 228.942 132.806 227.139 132.806C225.337 132.806 224.029 134.196 224.029 136.425C224.029 138.655 225.337 140.045 227.139 140.045C227.601 140.045 228.027 139.956 228.409 139.784L229.025 140.609H229.961L229.042 139.388C229.792 138.772 230.25 137.747 230.25 136.425ZM226.864 137.747L227.91 139.116C227.669 139.202 227.411 139.247 227.139 139.247C225.86 139.247 224.855 138.256 224.855 136.425C224.855 134.595 225.86 133.604 227.139 133.604C228.419 133.604 229.424 134.595 229.424 136.425C229.424 137.489 229.087 138.266 228.55 138.734L227.8 137.747H226.864ZM234.905 137.788C234.905 138.779 234.148 139.233 233.543 139.233C232.868 139.233 232.387 138.738 232.387 137.967V134.664H231.575V138.022C231.575 139.371 232.29 140.018 233.281 140.018C234.079 140.018 234.602 139.591 234.85 139.054H234.905V139.949H235.717V134.664H234.905V137.788ZM237.204 139.949H238.016V134.664H237.204V139.949ZM237.617 133.783C237.934 133.783 238.195 133.535 238.195 133.232C238.195 132.93 237.934 132.682 237.617 132.682C237.301 132.682 237.039 132.93 237.039 133.232C237.039 133.535 237.301 133.783 237.617 133.783Z" fill="#777777"/>
<path d="M258.848 134.664H259.674C259.636 133.601 258.655 132.806 257.293 132.806C255.944 132.806 254.884 133.59 254.884 134.774C254.884 135.724 255.573 136.288 256.674 136.604L257.541 136.852C258.284 137.059 258.944 137.32 258.944 138.022C258.944 138.793 258.201 139.302 257.224 139.302C256.385 139.302 255.641 138.93 255.573 138.132H254.692C254.774 139.288 255.71 140.073 257.224 140.073C258.848 140.073 259.77 139.178 259.77 138.036C259.77 136.714 258.518 136.288 257.788 136.095L257.073 135.902C256.55 135.765 255.71 135.49 255.71 134.733C255.71 134.058 256.33 133.563 257.265 133.563C258.119 133.563 258.766 133.969 258.848 134.664ZM263.279 140.059C264.352 140.059 265.137 139.522 265.385 138.724L264.6 138.504C264.394 139.054 263.915 139.329 263.279 139.329C262.326 139.329 261.669 138.714 261.631 137.582H265.467V137.237C265.467 135.269 264.297 134.595 263.196 134.595C261.765 134.595 260.815 135.724 260.815 137.348C260.815 138.972 261.751 140.059 263.279 140.059ZM261.631 136.88C261.686 136.057 262.267 135.324 263.196 135.324C264.077 135.324 264.641 135.985 264.641 136.88H261.631ZM267.166 134.664H266.23L267.909 137.306L266.23 139.949H267.166L268.432 137.898L269.698 139.949H270.634L268.928 137.306L270.634 134.664H269.698L268.432 136.825L267.166 134.664Z" fill="#777777"/>
<path d="M289.964 134.664H290.789C290.752 133.601 289.771 132.806 288.408 132.806C287.06 132.806 286 133.59 286 134.774C286 135.724 286.688 136.288 287.789 136.604L288.656 136.852C289.399 137.059 290.06 137.32 290.06 138.022C290.06 138.793 289.317 139.302 288.34 139.302C287.5 139.302 286.757 138.93 286.688 138.132H285.807C285.89 139.288 286.826 140.073 288.34 140.073C289.964 140.073 290.886 139.178 290.886 138.036C290.886 136.714 289.633 136.288 288.904 136.095L288.188 135.902C287.665 135.765 286.826 135.49 286.826 134.733C286.826 134.058 287.445 133.563 288.381 133.563C289.234 133.563 289.881 133.969 289.964 134.664ZM293.734 140.073C294.656 140.073 295.138 139.577 295.303 139.233H295.344V139.949H296.156V136.467C296.156 134.788 294.876 134.595 294.202 134.595C293.403 134.595 292.495 134.87 292.082 135.834L292.853 136.109C293.032 135.724 293.455 135.311 294.229 135.311C294.976 135.311 295.344 135.706 295.344 136.384V136.412C295.344 136.804 294.945 136.77 293.982 136.893C293.001 137.021 291.931 137.237 291.931 138.449C291.931 139.481 292.729 140.073 293.734 140.073ZM293.858 139.343C293.211 139.343 292.743 139.054 292.743 138.49C292.743 137.871 293.307 137.678 293.94 137.595C294.284 137.554 295.206 137.458 295.344 137.293V138.036C295.344 138.696 294.821 139.343 293.858 139.343ZM293.885 133.948H294.601L295.674 132.352H294.725L293.885 133.948ZM297.748 139.949H298.533V139.137H298.629C298.808 139.426 299.152 140.059 300.17 140.059C301.492 140.059 302.414 138.999 302.414 137.32C302.414 135.655 301.492 134.595 300.157 134.595C299.125 134.595 298.808 135.228 298.629 135.503H298.56V132.902H297.748V139.949ZM298.546 137.306C298.546 136.123 299.069 135.324 300.06 135.324C301.093 135.324 301.602 136.191 301.602 137.306C301.602 138.435 301.079 139.329 300.06 139.329C299.083 139.329 298.546 138.504 298.546 137.306Z" fill="#777777"/>
<path d="M156.834 89.4301V96.8001C156.829 97.8169 156.375 98.3536 155.549 98.3536C154.769 98.3536 154.264 97.8685 154.248 97.0272H152.024C152.013 99.1381 153.52 100.145 155.435 100.145C157.577 100.145 159.038 98.8491 159.043 96.8001V89.4301H156.834ZM163.11 100.15C164.281 100.15 165.04 99.6387 165.427 98.9007H165.489V100H167.574V94.6531C167.574 92.7642 165.974 91.9694 164.209 91.9694C162.31 91.9694 161.061 92.8777 160.756 94.3228L162.79 94.488C162.939 93.9616 163.409 93.5745 164.199 93.5745C164.947 93.5745 165.375 93.9512 165.375 94.6015V94.6325C165.375 95.1434 164.833 95.2105 163.455 95.3447C161.887 95.4892 160.478 96.0157 160.478 97.7859C160.478 99.3549 161.598 100.15 163.11 100.15ZM163.739 98.6323C163.063 98.6323 162.578 98.3175 162.578 97.7136C162.578 97.0943 163.089 96.7898 163.863 96.6814C164.343 96.6143 165.128 96.5008 165.391 96.3253V97.1666C165.391 97.9975 164.704 98.6323 163.739 98.6323ZM171.478 95.417C171.484 94.3951 172.093 93.7964 172.98 93.7964C173.863 93.7964 174.394 94.3744 174.389 95.3447V100H176.588V94.9525C176.588 93.1048 175.504 91.9694 173.852 91.9694C172.676 91.9694 171.824 92.5474 171.468 93.4713H171.375V92.0726H169.28V100H171.478V95.417ZM181.933 100.155C183.895 100.155 185.216 99.2 185.525 97.7291L183.492 97.5949C183.27 98.1988 182.702 98.5136 181.97 98.5136C180.87 98.5136 180.173 97.7859 180.173 96.604V96.5989H185.572V95.995C185.572 93.3009 183.941 91.9694 181.846 91.9694C179.513 91.9694 178.001 93.6261 178.001 96.0724C178.001 98.5859 179.492 100.155 181.933 100.155ZM180.173 95.2363C180.22 94.3332 180.906 93.6106 181.882 93.6106C182.837 93.6106 183.497 94.2919 183.502 95.2363H180.173ZM187.007 100H189.205V92.0726H187.007V100ZM188.111 91.0507C188.767 91.0507 189.303 90.5501 189.303 89.9359C189.303 89.3269 188.767 88.8263 188.111 88.8263C187.461 88.8263 186.924 89.3269 186.924 89.9359C186.924 90.5501 187.461 91.0507 188.111 91.0507ZM190.967 100H193.165V95.515C193.165 94.5396 193.877 93.8687 194.848 93.8687C195.152 93.8687 195.57 93.9203 195.777 93.9874V92.0365C195.581 91.99 195.307 91.9591 195.085 91.9591C194.197 91.9591 193.47 92.4752 193.181 93.4558H193.098V92.0726H190.967V100ZM200.126 100.155C202.531 100.155 204.028 98.5085 204.028 96.0673C204.028 93.6106 202.531 91.9694 200.126 91.9694C197.721 91.9694 196.224 93.6106 196.224 96.0673C196.224 98.5085 197.721 100.155 200.126 100.155ZM200.136 98.4517C199.027 98.4517 198.459 97.435 198.459 96.0518C198.459 94.6686 199.027 93.6467 200.136 93.6467C201.225 93.6467 201.793 94.6686 201.793 96.0518C201.793 97.435 201.225 98.4517 200.136 98.4517ZM209.177 100H216.713V98.173H212.274V98.1007L213.817 96.5885C215.99 94.6067 216.573 93.6158 216.573 92.4132C216.573 90.5811 215.076 89.2856 212.811 89.2856C210.591 89.2856 209.069 90.612 209.074 92.6868H211.195C211.19 91.6752 211.83 91.0559 212.795 91.0559C213.724 91.0559 214.416 91.6339 214.416 92.5629C214.416 93.4042 213.9 93.9822 212.94 94.906L209.177 98.3897V100ZM222.805 100.232C225.463 100.232 227.068 98.2091 227.073 94.7254C227.079 91.2675 225.453 89.2856 222.805 89.2856C220.152 89.2856 218.542 91.2623 218.537 94.7254C218.527 98.1988 220.142 100.227 222.805 100.232ZM222.805 98.3794C221.592 98.3794 220.808 97.1614 220.813 94.7254C220.818 92.3255 221.597 91.1178 222.805 91.1178C224.008 91.1178 224.792 92.3255 224.792 94.7254C224.797 97.1614 224.013 98.3794 222.805 98.3794ZM228.991 100H236.526V98.173H232.087V98.1007L233.63 96.5885C235.803 94.6067 236.386 93.6158 236.386 92.4132C236.386 90.5811 234.89 89.2856 232.624 89.2856C230.405 89.2856 228.882 90.612 228.887 92.6868H231.009C231.003 91.6752 231.643 91.0559 232.609 91.0559C233.538 91.0559 234.229 91.6339 234.229 92.5629C234.229 93.4042 233.713 93.9822 232.753 94.906L228.991 98.3897V100ZM244.626 89.4301H242.526L239.909 91.0868V93.0687L242.329 91.5513H242.391V100H244.626V89.4301Z" fill="black"/>
<rect x="89.3073" y="86.3073" width="220.618" height="223.848" rx="5.83809" stroke="#E5E5E5" stroke-width="0.614536"/>
</g>
</g>
<circle cx="200" cy="200" r="197.5" stroke="#FCDCC7" stroke-width="5" stroke-linecap="round" stroke-linejoin="round" stroke-dasharray="10 30"/>
<defs>
<filter id="filter0_d_1181_155" x="85.5386" y="86" width="228.156" height="234.513" filterUnits="userSpaceOnUse" color-interpolation-filters="sRGB">
<feFlood flood-opacity="0" result="BackgroundImageFix"/>
<feColorMatrix in="SourceAlpha" type="matrix" values="0 0 0 0 0 0 0 0 0 0 0 0 0 0 0 0 0 0 127 0" result="hardAlpha"/>
<feOffset dy="3.46145"/>
<feGaussianBlur stdDeviation="1.73072"/>
<feColorMatrix type="matrix" values="0 0 0 0 0 0 0 0 0 0 0 0 0 0 0 0 0 0 0.25 0"/>
<feBlend mode="normal" in2="BackgroundImageFix" result="effect1_dropShadow_1181_155"/>
<feBlend mode="normal" in="SourceGraphic" in2="effect1_dropShadow_1181_155" result="shape"/>
</filter>
<clipPath id="clip0_1181_155">
<rect x="89" y="86" width="221.233" height="227.59" rx="6.35727" fill="white"/>
</clipPath>
</defs>
</svg>
