<svg width="400" height="400" viewBox="0 0 400 400" fill="none" xmlns="http://www.w3.org/2000/svg">
<path d="M152.976 144.352C151.937 140.583 149.689 137.259 146.579 134.891C143.469 132.522 139.667 131.24 135.757 131.24C131.848 131.24 128.046 132.522 124.936 134.891C121.826 137.259 119.578 140.583 118.539 144.352L116.061 153.333C115.616 154.946 115.55 156.639 115.867 158.281C116.184 159.924 116.877 161.471 117.89 162.802C118.904 164.132 120.211 165.211 121.71 165.954C123.208 166.696 124.859 167.083 126.531 167.083H144.983C146.656 167.083 148.306 166.696 149.805 165.954C151.304 165.211 152.611 164.132 153.625 162.802C154.638 161.471 155.33 159.924 155.648 158.281C155.965 156.639 155.899 154.946 155.454 153.333L152.976 144.352ZM150.168 160.169C149.563 160.97 148.779 161.62 147.879 162.066C146.979 162.512 145.988 162.742 144.983 162.738H126.531C125.528 162.738 124.538 162.506 123.638 162.061C122.739 161.615 121.955 160.968 121.347 160.169C120.738 159.371 120.323 158.443 120.133 157.457C119.942 156.472 119.982 155.456 120.249 154.488L122.727 145.507C123.513 142.655 125.214 140.14 127.568 138.348C129.922 136.555 132.799 135.584 135.757 135.584C138.716 135.584 141.593 136.555 143.947 138.348C146.301 140.14 148.001 142.655 148.788 145.507L151.266 154.488C151.537 155.455 151.578 156.472 151.388 157.458C151.197 158.445 150.78 159.373 150.168 160.169V160.169Z" fill="black"/>
<path d="M120.836 134.269C121.214 131.907 120.713 129.378 119.424 127.146C118.135 124.915 116.195 123.216 113.961 122.362C111.568 121.448 109.128 121.594 107.086 122.772C103.029 125.115 101.961 130.889 104.707 135.643C105.995 137.875 107.935 139.574 110.169 140.427C111.159 140.813 112.211 141.014 113.273 141.021C114.597 141.025 115.898 140.679 117.044 140.017C119.084 138.839 120.431 136.798 120.836 134.269ZM116.546 133.582C116.351 134.794 115.757 135.744 114.871 136.255C113.986 136.766 112.866 136.806 111.719 136.369C110.414 135.87 109.26 134.841 108.469 133.471C106.948 130.837 107.309 127.66 109.259 126.534C109.749 126.256 110.304 126.113 110.867 126.119C111.396 126.125 111.919 126.227 112.411 126.42C113.716 126.919 114.87 127.948 115.661 129.318C116.452 130.688 116.766 132.203 116.546 133.582Z" fill="black"/>
<path d="M121.307 125.268C122.849 126.502 124.611 127.144 126.392 127.144C126.926 127.144 127.458 127.086 127.979 126.972C132.558 125.977 135.334 120.803 134.168 115.438C133.62 112.92 132.29 110.711 130.422 109.217C128.421 107.618 126.052 107.012 123.749 107.513C119.171 108.508 116.395 113.683 117.561 119.048C118.108 121.566 119.439 123.775 121.307 125.268ZM124.672 111.759C124.883 111.713 125.099 111.69 125.314 111.691C126.122 111.691 126.953 112.007 127.709 112.611C128.8 113.484 129.586 114.815 129.922 116.361C130.568 119.334 129.256 122.249 127.056 122.728C126.057 122.945 124.978 122.642 124.02 121.876C122.928 121.003 122.143 119.672 121.807 118.126C121.16 115.152 122.473 112.237 124.672 111.759Z" fill="black"/>
<path d="M164.427 122.772C162.387 121.594 159.945 121.448 157.553 122.362C155.319 123.216 153.379 124.915 152.09 127.146C150.802 129.378 150.301 131.907 150.678 134.269C151.083 136.798 152.43 138.839 154.47 140.017C155.616 140.679 156.918 141.026 158.241 141.021C159.303 141.014 160.355 140.813 161.345 140.427C163.579 139.574 165.519 137.875 166.808 135.643C169.553 130.889 168.485 125.115 164.427 122.772ZM163.045 133.471C162.254 134.841 161.1 135.87 159.795 136.369C158.648 136.807 157.529 136.767 156.643 136.255C155.757 135.743 155.163 134.794 154.969 133.582C154.748 132.203 155.062 130.688 155.853 129.319C156.644 127.95 157.798 126.92 159.103 126.421C159.595 126.228 160.118 126.125 160.647 126.12C161.21 126.114 161.765 126.257 162.255 126.535C164.205 127.66 164.566 130.836 163.045 133.471Z" fill="black"/>
<path d="M143.535 126.972C144.056 127.086 144.588 127.143 145.122 127.144C146.903 127.144 148.666 126.502 150.208 125.268C152.076 123.775 153.406 121.566 153.953 119.048C155.119 113.683 152.343 108.508 147.765 107.513C145.463 107.013 143.093 107.618 141.092 109.217C139.224 110.711 137.894 112.92 137.347 115.438C136.18 120.803 138.957 125.977 143.535 126.972ZM141.592 116.361C141.928 114.815 142.714 113.482 143.805 112.611C144.562 112.006 145.392 111.69 146.2 111.69C146.416 111.69 146.631 111.712 146.842 111.758C149.042 112.236 150.354 115.152 149.708 118.124C149.372 119.67 148.586 121.002 147.495 121.874C146.536 122.641 145.458 122.943 144.458 122.726C142.258 122.249 140.946 119.333 141.592 116.361Z" fill="black"/>
<path d="M173.421 261.571C172.381 257.802 170.134 254.479 167.024 252.11C163.913 249.742 160.112 248.459 156.202 248.459C152.293 248.459 148.491 249.742 145.381 252.11C142.27 254.479 140.023 257.802 138.983 261.571L136.506 270.552C136.061 272.165 135.995 273.858 136.312 275.501C136.629 277.143 137.322 278.69 138.335 280.021C139.348 281.352 140.655 282.43 142.154 283.173C143.653 283.916 145.303 284.302 146.976 284.302H165.428C167.101 284.302 168.751 283.916 170.25 283.173C171.749 282.43 173.056 281.352 174.07 280.021C175.083 278.69 175.775 277.143 176.093 275.501C176.41 273.858 176.343 272.165 175.899 270.552L173.421 261.571ZM170.613 277.388C170.008 278.19 169.224 278.839 168.324 279.285C167.424 279.731 166.433 279.961 165.428 279.957H146.976C145.973 279.957 144.982 279.726 144.083 279.28C143.184 278.835 142.399 278.187 141.791 277.389C141.183 276.59 140.768 275.662 140.578 274.677C140.387 273.691 140.427 272.675 140.694 271.707L143.171 262.726C143.958 259.874 145.659 257.359 148.013 255.567C150.367 253.774 153.244 252.804 156.202 252.804C159.161 252.804 162.038 253.774 164.392 255.567C166.745 257.359 168.446 259.874 169.233 262.726L171.711 271.707C171.981 272.675 172.023 273.692 171.833 274.678C171.642 275.664 171.225 276.592 170.613 277.389V277.388Z" fill="black"/>
<path d="M141.281 251.488C141.659 249.126 141.157 246.597 139.869 244.365C138.58 242.134 136.64 240.435 134.406 239.581C132.013 238.667 129.572 238.813 127.531 239.991C123.474 242.334 122.406 248.108 125.151 252.863C126.44 255.094 128.38 256.793 130.614 257.646C131.604 258.032 132.656 258.233 133.718 258.24C135.042 258.245 136.343 257.899 137.489 257.237C139.529 256.059 140.875 254.017 141.281 251.488ZM136.99 250.801C136.796 252.014 136.202 252.963 135.316 253.474C134.43 253.985 133.311 254.026 132.164 253.588C130.859 253.089 129.704 252.06 128.913 250.69C127.393 248.056 127.754 244.879 129.704 243.754C130.194 243.475 130.749 243.332 131.312 243.338C131.841 243.344 132.364 243.446 132.855 243.639C134.161 244.138 135.315 245.167 136.106 246.537C136.897 247.907 137.211 249.422 136.99 250.801Z" fill="black"/>
<path d="M141.752 242.488C143.295 243.721 145.056 244.363 146.838 244.363C147.371 244.363 147.903 244.305 148.425 244.192C153.003 243.196 155.779 238.022 154.613 232.657C154.066 230.139 152.735 227.93 150.867 226.436C148.867 224.837 146.497 224.232 144.195 224.732C139.616 225.728 136.84 230.902 138.006 236.267C138.554 238.785 139.884 240.994 141.752 242.488ZM145.117 228.978C145.328 228.932 145.544 228.91 145.76 228.91C146.567 228.91 147.398 229.226 148.154 229.831C149.246 230.703 150.032 232.035 150.367 233.581C151.014 236.553 149.701 239.469 147.502 239.947C146.502 240.164 145.424 239.862 144.465 239.095C143.374 238.222 142.588 236.891 142.252 235.345C141.606 232.371 142.918 229.456 145.117 228.978Z" fill="black"/>
<path d="M184.873 239.991C182.832 238.813 180.391 238.667 177.998 239.581C175.764 240.435 173.824 242.134 172.536 244.365C171.247 246.597 170.746 249.126 171.124 251.488C171.528 254.017 172.875 256.059 174.916 257.237C176.062 257.899 177.363 258.245 178.686 258.24C179.748 258.233 180.801 258.032 181.79 257.646C184.025 256.793 185.965 255.094 187.253 252.863C189.998 248.108 188.931 242.334 184.873 239.991ZM183.491 250.69C182.7 252.06 181.545 253.089 180.24 253.588C179.094 254.026 177.974 253.986 177.088 253.474C176.203 252.963 175.608 252.014 175.414 250.801C175.193 249.422 175.507 247.908 176.298 246.538C177.089 245.169 178.243 244.139 179.549 243.641C180.04 243.447 180.563 243.345 181.092 243.339C181.655 243.333 182.21 243.476 182.7 243.754C184.65 244.879 185.012 248.056 183.491 250.69Z" fill="black"/>
<path d="M163.98 244.192C164.502 244.305 165.034 244.363 165.567 244.363C167.349 244.363 169.111 243.721 170.653 242.488C172.521 240.994 173.851 238.785 174.399 236.267C175.565 230.902 172.789 225.728 168.21 224.732C165.908 224.232 163.538 224.837 161.538 226.436C159.669 227.93 158.339 230.139 157.792 232.657C156.626 238.022 159.402 243.196 163.98 244.192ZM162.038 233.58C162.373 232.034 163.159 230.702 164.251 229.83C165.007 229.225 165.838 228.909 166.645 228.909C166.861 228.909 167.076 228.932 167.288 228.977C169.487 229.455 170.799 232.371 170.153 235.343C169.817 236.889 169.031 238.222 167.94 239.093C166.982 239.86 165.904 240.163 164.903 239.945C162.704 239.468 161.391 236.552 162.038 233.58Z" fill="black"/>
<path d="M282.462 268.386C281.423 264.617 279.175 261.294 276.065 258.925C272.954 256.557 269.153 255.274 265.243 255.274C261.334 255.274 257.532 256.557 254.422 258.925C251.311 261.294 249.064 264.617 248.024 268.386L245.547 277.367C245.102 278.98 245.036 280.673 245.353 282.316C245.67 283.958 246.363 285.505 247.376 286.836C248.389 288.167 249.696 289.245 251.195 289.988C252.694 290.731 254.344 291.117 256.017 291.117H274.469C276.142 291.117 277.792 290.731 279.291 289.988C280.79 289.245 282.097 288.167 283.111 286.836C284.124 285.505 284.816 283.958 285.134 282.316C285.451 280.673 285.384 278.98 284.94 277.367L282.462 268.386ZM279.654 284.203C279.049 285.005 278.265 285.654 277.365 286.1C276.465 286.546 275.474 286.776 274.469 286.772H256.017C255.014 286.772 254.023 286.541 253.124 286.095C252.225 285.649 251.44 285.002 250.832 284.204C250.224 283.405 249.809 282.477 249.619 281.492C249.428 280.506 249.468 279.49 249.735 278.522L252.212 269.541C252.999 266.689 254.7 264.174 257.054 262.382C259.408 260.589 262.285 259.619 265.243 259.619C268.202 259.619 271.079 260.589 273.433 262.382C275.787 264.174 277.487 266.689 278.274 269.541L280.752 278.522C281.022 279.49 281.064 280.506 280.874 281.493C280.683 282.479 280.266 283.407 279.654 284.204V284.203Z" fill="black"/>
<path d="M250.322 258.303C250.7 255.941 250.199 253.412 248.91 251.18C247.622 248.949 245.682 247.25 243.447 246.396C241.055 245.482 238.614 245.628 236.573 246.806C232.515 249.149 231.447 254.923 234.193 259.677C235.481 261.909 237.421 263.608 239.656 264.461C240.645 264.847 241.697 265.048 242.76 265.055C244.083 265.06 245.384 264.713 246.53 264.052C248.57 262.874 249.917 260.832 250.322 258.303ZM246.032 257.616C245.838 258.829 245.243 259.778 244.358 260.289C243.472 260.8 242.353 260.841 241.205 260.403C239.9 259.904 238.746 258.875 237.955 257.505C236.434 254.871 236.796 251.694 238.745 250.568C239.235 250.29 239.79 250.147 240.354 250.153C240.882 250.159 241.405 250.261 241.897 250.454C243.202 250.953 244.356 251.982 245.147 253.352C245.938 254.722 246.252 256.237 246.032 257.616Z" fill="black"/>
<path d="M250.793 249.303C252.336 250.536 254.097 251.178 255.879 251.178C256.412 251.178 256.944 251.12 257.466 251.007C262.044 250.011 264.82 244.837 263.654 239.472C263.107 236.954 261.776 234.745 259.908 233.251C257.908 231.652 255.538 231.047 253.236 231.547C248.657 232.542 245.881 237.717 247.047 243.082C247.595 245.6 248.925 247.809 250.793 249.303ZM254.158 235.793C254.369 235.747 254.585 235.725 254.801 235.725C255.608 235.725 256.439 236.041 257.195 236.646C258.287 237.518 259.073 238.85 259.408 240.396C260.055 243.368 258.742 246.284 256.543 246.762C255.543 246.979 254.465 246.677 253.506 245.91C252.415 245.037 251.629 243.706 251.293 242.16C250.647 239.186 251.959 236.271 254.158 235.793Z" fill="black"/>
<path d="M293.914 246.806C291.873 245.628 289.432 245.482 287.039 246.396C284.805 247.25 282.865 248.949 281.577 251.18C280.288 253.412 279.787 255.941 280.165 258.303C280.569 260.832 281.916 262.874 283.957 264.052C285.103 264.714 286.404 265.06 287.727 265.055C288.789 265.048 289.842 264.847 290.831 264.461C293.066 263.608 295.006 261.909 296.294 259.677C299.039 254.923 297.972 249.149 293.914 246.806ZM292.532 257.505C291.741 258.875 290.586 259.904 289.281 260.403C288.135 260.841 287.015 260.801 286.129 260.289C285.244 259.778 284.649 258.829 284.455 257.616C284.234 256.237 284.548 254.723 285.339 253.353C286.13 251.984 287.284 250.954 288.59 250.455C289.081 250.262 289.605 250.16 290.133 250.154C290.696 250.148 291.251 250.291 291.742 250.569C293.691 251.694 294.053 254.871 292.532 257.505Z" fill="black"/>
<path d="M273.021 251.007C273.543 251.12 274.075 251.178 274.608 251.178C276.39 251.178 278.152 250.536 279.694 249.303C281.562 247.809 282.892 245.6 283.44 243.082C284.606 237.717 281.83 232.543 277.251 231.547C274.949 231.047 272.579 231.652 270.579 233.251C268.71 234.745 267.38 236.954 266.833 239.472C265.667 244.837 268.443 250.011 273.021 251.007ZM271.079 240.395C271.414 238.849 272.2 237.517 273.292 236.645C274.048 236.04 274.879 235.724 275.686 235.724C275.902 235.724 276.117 235.746 276.329 235.792C278.528 236.27 279.84 239.186 279.194 242.158C278.858 243.704 278.072 245.037 276.981 245.908C276.023 246.675 274.945 246.977 273.944 246.76C271.745 246.283 270.432 243.367 271.079 240.395Z" fill="black"/>
<path d="M257.928 148.441C256.888 144.672 254.641 141.349 251.531 138.98C248.42 136.612 244.619 135.329 240.709 135.329C236.8 135.329 232.998 136.612 229.888 138.98C226.777 141.349 224.53 144.672 223.49 148.441L221.013 157.422C220.568 159.035 220.501 160.728 220.819 162.371C221.136 164.013 221.828 165.56 222.842 166.891C223.855 168.222 225.162 169.3 226.661 170.043C228.16 170.786 229.81 171.172 231.483 171.172H249.935C251.608 171.172 253.258 170.786 254.757 170.043C256.256 169.3 257.563 168.222 258.576 166.891C259.59 165.56 260.282 164.013 260.599 162.371C260.917 160.728 260.85 159.035 260.405 157.422L257.928 148.441ZM255.12 164.258C254.515 165.059 253.731 165.709 252.831 166.155C251.931 166.601 250.939 166.831 249.935 166.827H231.483C230.479 166.827 229.489 166.596 228.59 166.15C227.691 165.704 226.906 165.057 226.298 164.259C225.69 163.46 225.275 162.532 225.084 161.546C224.894 160.561 224.934 159.545 225.201 158.577L227.678 149.596C228.465 146.744 230.166 144.229 232.52 142.437C234.874 140.644 237.75 139.673 240.709 139.673C243.668 139.673 246.545 140.644 248.898 142.437C251.252 144.229 252.953 146.744 253.74 149.596L256.217 158.577C256.488 159.544 256.53 160.561 256.339 161.548C256.149 162.534 255.731 163.462 255.12 164.259V164.258Z" fill="black"/>
<path d="M225.788 138.358C226.166 135.996 225.664 133.467 224.376 131.235C223.087 129.004 221.147 127.305 218.913 126.451C216.52 125.537 214.079 125.683 212.038 126.861C207.98 129.204 206.913 134.978 209.658 139.732C210.947 141.964 212.887 143.663 215.121 144.516C216.111 144.902 217.163 145.103 218.225 145.11C219.548 145.115 220.849 144.768 221.995 144.107C224.035 142.929 225.382 140.887 225.788 138.358ZM221.497 137.671C221.303 138.884 220.708 139.833 219.823 140.344C218.937 140.855 217.818 140.896 216.671 140.458C215.366 139.959 214.211 138.93 213.42 137.56C211.9 134.926 212.261 131.749 214.21 130.623C214.7 130.345 215.255 130.202 215.819 130.208C216.347 130.214 216.87 130.316 217.362 130.509C218.667 131.008 219.822 132.037 220.613 133.407C221.404 134.777 221.718 136.292 221.497 137.671Z" fill="black"/>
<path d="M226.259 129.358C227.801 130.591 229.563 131.233 231.344 131.233C231.878 131.233 232.41 131.175 232.931 131.062C237.51 130.066 240.286 124.892 239.12 119.527C238.573 117.009 237.242 114.8 235.374 113.306C233.374 111.707 231.004 111.102 228.702 111.602C224.123 112.597 221.347 117.772 222.513 123.137C223.06 125.655 224.391 127.864 226.259 129.358ZM229.624 115.848C229.835 115.802 230.051 115.779 230.267 115.78C231.074 115.78 231.905 116.096 232.661 116.7C233.752 117.573 234.538 118.905 234.874 120.451C235.52 123.423 234.208 126.339 232.009 126.817C231.009 127.034 229.931 126.732 228.972 125.965C227.881 125.092 227.095 123.761 226.759 122.215C226.112 119.241 227.425 116.326 229.624 115.848Z" fill="black"/>
<path d="M269.38 126.861C267.339 125.683 264.897 125.537 262.505 126.451C260.271 127.305 258.331 129.004 257.042 131.235C255.754 133.467 255.253 135.996 255.63 138.358C256.035 140.887 257.382 142.929 259.423 144.107C260.569 144.768 261.87 145.115 263.193 145.11C264.255 145.103 265.307 144.902 266.297 144.516C268.531 143.663 270.471 141.964 271.76 139.732C274.505 134.978 273.437 129.204 269.38 126.861ZM267.998 137.56C267.207 138.93 266.052 139.959 264.747 140.458C263.6 140.896 262.481 140.856 261.595 140.344C260.71 139.832 260.115 138.884 259.921 137.671C259.7 136.292 260.014 134.778 260.805 133.408C261.596 132.039 262.75 131.009 264.055 130.51C264.547 130.317 265.07 130.215 265.599 130.209C266.162 130.203 266.717 130.346 267.207 130.624C269.157 131.749 269.519 134.925 267.998 137.56Z" fill="black"/>
<path d="M248.487 131.061C249.009 131.175 249.541 131.233 250.074 131.233C251.855 131.233 253.618 130.591 255.16 129.357C257.028 127.864 258.358 125.655 258.905 123.137C260.072 117.772 257.295 112.597 252.717 111.602C250.415 111.102 248.045 111.707 246.044 113.306C244.176 114.8 242.846 117.009 242.299 119.527C241.133 124.892 243.909 130.066 248.487 131.061ZM246.544 120.45C246.88 118.904 247.666 117.571 248.757 116.7C249.514 116.095 250.344 115.779 251.152 115.779C251.368 115.779 251.583 115.801 251.794 115.847C253.994 116.325 255.306 119.241 254.66 122.213C254.324 123.759 253.538 125.091 252.447 125.963C251.488 126.73 250.411 127.032 249.41 126.815C247.21 126.338 245.898 123.422 246.544 120.45Z" fill="black"/>
<circle cx="200" cy="200" r="197.5" stroke="#FCDCC7" stroke-width="5" stroke-linecap="round" stroke-linejoin="round" stroke-dasharray="10 30"/>
</svg>
