<svg width="400" height="400" viewBox="0 0 400 400" fill="none" xmlns="http://www.w3.org/2000/svg">
<g clip-path="url(#clip0_1181_157)">
<ellipse cx="199.821" cy="199.821" rx="149.821" ry="149.821" fill="#FFD2B5"/>
</g>
<path d="M187.118 211.347C185.527 211.347 184.081 210.971 182.779 210.219C181.478 209.438 180.437 208.368 179.656 207.009C178.904 205.649 178.528 204.117 178.528 202.41C178.528 200.588 178.918 199.012 179.699 197.681C180.48 196.351 181.536 195.324 182.866 194.601C184.226 193.878 185.715 193.517 187.335 193.517C188.839 193.517 190.27 193.878 191.63 194.601C192.989 195.324 194.045 196.279 194.797 197.464V178.029H196.836V211H194.753V207.486C193.972 208.643 192.902 209.583 191.543 210.306C190.184 211 188.709 211.347 187.118 211.347ZM187.638 209.568C188.94 209.568 190.111 209.294 191.152 208.744C192.194 208.166 193.032 207.399 193.669 206.445C194.305 205.461 194.666 204.362 194.753 203.148V200.978C194.551 199.879 194.103 198.896 193.408 198.028C192.714 197.161 191.876 196.481 190.892 195.989C189.909 195.469 188.824 195.209 187.638 195.209C186.337 195.209 185.151 195.512 184.081 196.12C183.011 196.727 182.158 197.566 181.521 198.636C180.885 199.706 180.567 200.95 180.567 202.367C180.567 203.697 180.885 204.912 181.521 206.011C182.158 207.081 183.011 207.949 184.081 208.614C185.18 209.25 186.366 209.568 187.638 209.568ZM212.78 211.347C211.016 211.347 209.454 210.957 208.095 210.176C206.735 209.395 205.665 208.339 204.884 207.009C204.132 205.649 203.756 204.131 203.756 202.454C203.756 200.805 204.161 199.301 204.971 197.942C205.781 196.582 206.865 195.498 208.225 194.688C209.613 193.878 211.146 193.473 212.823 193.473C214.848 193.473 216.54 194.066 217.899 195.252C219.287 196.438 220.285 197.985 220.893 199.894L206.403 205.49C206.952 206.676 207.776 207.659 208.876 208.44C210.003 209.192 211.319 209.568 212.823 209.568C213.749 209.568 214.631 209.395 215.47 209.048C216.337 208.701 217.104 208.252 217.769 207.703L218.81 209.178C218 209.814 217.06 210.335 215.99 210.74C214.949 211.145 213.879 211.347 212.78 211.347ZM205.752 202.367C205.752 202.916 205.81 203.451 205.925 203.972L218.42 199.07C217.899 198.028 217.162 197.132 216.207 196.38C215.253 195.599 214.082 195.209 212.693 195.209C211.392 195.209 210.22 195.527 209.179 196.163C208.138 196.799 207.299 197.652 206.663 198.723C206.056 199.793 205.752 201.007 205.752 202.367Z" fill="black"/>
<path d="M151.627 264.111C151.081 264.629 150.219 265.132 149.04 265.62C147.862 266.109 146.568 266.526 145.16 266.871C143.78 267.187 142.472 267.345 141.236 267.345C137.874 267.345 134.956 266.684 132.484 265.362C130.013 264.011 128.101 262.186 126.75 259.886C125.399 257.587 124.724 254.971 124.724 252.04C124.724 249.309 125.155 246.895 126.017 244.796C126.88 242.698 128.058 240.945 129.553 239.537C131.047 238.128 132.757 237.065 134.683 236.346C136.638 235.628 138.693 235.268 140.848 235.268C142.745 235.268 144.499 235.484 146.108 235.915C147.718 236.346 149.112 236.892 150.29 237.553L148.652 242.21C148.077 241.893 147.359 241.592 146.496 241.304C145.663 240.988 144.801 240.744 143.91 240.571C143.019 240.399 142.214 240.313 141.495 240.313C137.931 240.313 135.1 241.304 133.002 243.287C130.932 245.271 129.898 248.044 129.898 251.608C129.898 253.764 130.386 255.647 131.363 257.256C132.341 258.866 133.677 260.116 135.373 261.007C137.098 261.898 139.095 262.344 141.366 262.344C142.343 262.344 143.292 262.257 144.211 262.085C145.131 261.913 145.922 261.64 146.583 261.266V256.049H140.676V251.22H151.627V264.111ZM168.953 235.613C171.281 235.613 173.307 236.016 175.032 236.82C176.785 237.596 178.136 238.746 179.084 240.269C180.062 241.764 180.55 243.575 180.55 245.702C180.55 247.484 180.162 249.223 179.386 250.919C178.61 252.614 177.302 253.937 175.463 254.885L183.094 267H177.274L170.203 256.092C170.03 256.092 169.858 256.092 169.686 256.092H165.159V267H160.114V235.613H168.953ZM169.642 251.263C171.137 251.263 172.301 250.976 173.135 250.401C173.968 249.798 174.543 249.079 174.859 248.246C175.204 247.383 175.377 246.593 175.377 245.874C175.377 245.184 175.218 244.423 174.902 243.589C174.586 242.727 174.026 241.994 173.221 241.39C172.416 240.758 171.281 240.442 169.815 240.442H165.159V251.263H169.642ZM186.583 267L200.465 234.32H200.767L214.65 267H208.873L205.984 259.628H194.559L191.541 267H186.583ZM196.326 255.316H204.302L200.379 245.443L196.326 255.316ZM242.254 264.543C241.795 264.859 241.105 265.247 240.185 265.707C239.294 266.166 238.216 266.569 236.951 266.914C235.687 267.23 234.307 267.374 232.812 267.345C230.369 267.316 228.171 266.885 226.216 266.051C224.262 265.189 222.595 264.04 221.215 262.602C219.864 261.137 218.829 259.469 218.111 257.601C217.392 255.704 217.033 253.692 217.033 251.565C217.033 249.18 217.406 246.995 218.154 245.012C218.93 243.029 219.993 241.319 221.344 239.881C222.724 238.416 224.348 237.28 226.216 236.475C228.113 235.671 230.197 235.268 232.468 235.268C234.451 235.268 236.218 235.541 237.771 236.087C239.351 236.605 240.674 237.194 241.737 237.855L239.754 242.554C238.949 242.008 237.943 241.462 236.736 240.916C235.529 240.37 234.163 240.097 232.64 240.097C230.772 240.097 229.047 240.6 227.466 241.606C225.914 242.583 224.65 243.92 223.672 245.616C222.724 247.283 222.25 249.165 222.25 251.263C222.25 253.448 222.681 255.388 223.543 257.084C224.434 258.78 225.67 260.116 227.251 261.093C228.86 262.042 230.757 262.516 232.942 262.516C234.58 262.516 236.003 262.272 237.21 261.783C238.417 261.266 239.395 260.691 240.142 260.059L242.254 264.543ZM228.501 273.295C228.817 273.64 229.205 273.913 229.665 274.114C230.154 274.344 230.686 274.459 231.26 274.459C231.893 274.459 232.496 274.301 233.071 273.984C233.675 273.697 233.977 273.251 233.977 272.648C233.977 272.246 233.79 271.857 233.416 271.484C233.071 271.11 232.396 270.923 231.39 270.923C230.93 270.923 230.456 270.981 229.967 271.096C229.478 271.211 229.047 271.326 228.674 271.441L227.898 269.113L230.872 266.569L234.58 266.655L232.769 268.768C234.264 268.768 235.514 269.084 236.52 269.716C237.526 270.377 238.029 271.34 238.029 272.605C238.029 273.611 237.727 274.444 237.124 275.105C236.52 275.766 235.744 276.255 234.796 276.571C233.847 276.887 232.841 277.046 231.778 277.046C230.599 277.046 229.622 276.873 228.846 276.528C228.099 276.183 227.481 275.766 226.992 275.278L228.501 273.295ZM246.536 267L260.419 234.32H260.721L274.603 267H268.826L265.937 259.628H254.512L251.494 267H246.536ZM256.28 255.316H264.256L260.333 245.443L256.28 255.316Z" fill="black"/>
<path d="M96.8243 124.198H116.998V126.237H107.93V155H105.805V126.237H96.8243V124.198ZM117.557 146.41C117.557 144.762 117.947 143.258 118.728 141.898C119.538 140.539 120.623 139.469 121.982 138.688C123.37 137.878 124.917 137.473 126.624 137.473C128.359 137.473 129.907 137.878 131.266 138.688C132.625 139.469 133.695 140.539 134.476 141.898C135.257 143.258 135.648 144.762 135.648 146.41C135.648 148.059 135.257 149.563 134.476 150.922C133.695 152.281 132.611 153.366 131.222 154.176C129.863 154.957 128.316 155.347 126.58 155.347C124.874 155.347 123.341 154.971 121.982 154.219C120.623 153.438 119.538 152.383 118.728 151.052C117.947 149.693 117.557 148.145 117.557 146.41ZM119.596 146.454C119.596 147.784 119.899 148.999 120.507 150.098C121.143 151.168 121.982 152.021 123.023 152.657C124.093 153.294 125.279 153.612 126.58 153.612C127.882 153.612 129.053 153.294 130.095 152.657C131.165 152.021 132.003 151.168 132.611 150.098C133.247 148.999 133.565 147.784 133.565 146.454C133.565 145.123 133.247 143.923 132.611 142.853C132.003 141.754 131.165 140.886 130.095 140.25C129.053 139.584 127.882 139.252 126.58 139.252C125.25 139.252 124.05 139.599 122.98 140.293C121.938 140.958 121.114 141.84 120.507 142.939C119.899 144.039 119.596 145.21 119.596 146.454ZM144.262 130.575H146.344V138.254H151.593V139.903H146.344V155H144.262V139.903H140.661V138.254H144.262V130.575ZM164.573 155.347C162.954 155.347 161.479 154.986 160.148 154.262C158.847 153.511 157.806 152.469 157.025 151.139C156.273 149.808 155.897 148.261 155.897 146.497C155.897 144.617 156.302 143.012 157.111 141.681C157.921 140.322 159.02 139.295 160.409 138.601C161.797 137.878 163.373 137.517 165.137 137.517C166.526 137.517 167.856 137.921 169.129 138.731C170.43 139.512 171.399 140.51 172.035 141.725L172.252 138.037H174.074V155H172.035V151.399C171.399 152.411 170.416 153.323 169.085 154.132C167.755 154.942 166.251 155.347 164.573 155.347ZM165.007 153.612C166.28 153.612 167.422 153.351 168.434 152.831C169.476 152.281 170.314 151.529 170.951 150.575C171.587 149.62 171.949 148.521 172.035 147.278V144.848C171.804 143.778 171.341 142.824 170.647 141.985C169.982 141.146 169.158 140.481 168.174 139.989C167.191 139.498 166.121 139.252 164.964 139.252C163.691 139.252 162.52 139.556 161.45 140.163C160.38 140.741 159.526 141.566 158.89 142.636C158.254 143.706 157.936 144.964 157.936 146.41C157.936 147.741 158.254 148.955 158.89 150.054C159.526 151.124 160.38 151.992 161.45 152.657C162.549 153.294 163.735 153.612 165.007 153.612ZM182.647 122.029H184.686V155H182.647V122.029ZM195.037 138.037L195.211 141.768C195.847 140.467 196.801 139.44 198.074 138.688C199.347 137.936 200.735 137.56 202.239 137.56C203.598 137.56 204.77 137.936 205.753 138.688C206.736 139.411 207.315 140.351 207.488 141.508C208.153 140.235 209.108 139.266 210.351 138.601C211.595 137.907 212.926 137.56 214.343 137.56C215.962 137.56 217.249 138.037 218.204 138.992C219.158 139.917 219.65 141.132 219.679 142.636V155H217.64V143.07C217.611 142.057 217.293 141.204 216.685 140.51C216.078 139.787 215.153 139.396 213.909 139.339C212.781 139.339 211.74 139.628 210.785 140.206C209.831 140.785 209.05 141.551 208.443 142.506C207.864 143.46 207.546 144.53 207.488 145.716V155H205.449V143.07C205.42 142.057 205.088 141.204 204.451 140.51C203.844 139.787 202.918 139.396 201.675 139.339C200.518 139.339 199.448 139.628 198.464 140.206C197.51 140.785 196.744 141.58 196.165 142.592C195.587 143.576 195.297 144.675 195.297 145.89V155H193.258V138.037H195.037ZM235.649 155.347C233.884 155.347 232.323 154.957 230.963 154.176C229.604 153.395 228.534 152.339 227.753 151.009C227.001 149.649 226.625 148.131 226.625 146.454C226.625 144.805 227.03 143.301 227.84 141.942C228.649 140.582 229.734 139.498 231.093 138.688C232.482 137.878 234.015 137.473 235.692 137.473C237.717 137.473 239.409 138.066 240.768 139.252C242.156 140.438 243.154 141.985 243.761 143.894L229.271 149.49C229.821 150.676 230.645 151.659 231.744 152.44C232.872 153.192 234.188 153.568 235.692 153.568C236.618 153.568 237.5 153.395 238.338 153.048C239.206 152.701 239.973 152.252 240.638 151.703L241.679 153.178C240.869 153.814 239.929 154.335 238.859 154.74C237.818 155.145 236.748 155.347 235.649 155.347ZM228.621 146.367C228.621 146.916 228.678 147.451 228.794 147.972L241.288 143.07C240.768 142.028 240.03 141.132 239.076 140.38C238.121 139.599 236.95 139.209 235.562 139.209C234.26 139.209 233.089 139.527 232.048 140.163C231.007 140.799 230.168 141.652 229.532 142.723C228.924 143.793 228.621 145.007 228.621 146.367ZM252.061 138.037L252.234 141.811C252.813 140.481 253.753 139.44 255.054 138.688C256.385 137.936 257.831 137.56 259.392 137.56C260.983 137.56 262.27 138.037 263.254 138.992C264.237 139.917 264.743 141.132 264.772 142.636V155H262.69V143.2C262.661 142.101 262.314 141.19 261.648 140.467C260.983 139.744 260.014 139.368 258.742 139.339C257.614 139.339 256.558 139.613 255.575 140.163C254.591 140.712 253.796 141.479 253.189 142.462C252.61 143.446 252.321 144.588 252.321 145.89V155H250.282V138.037H252.061ZM275.042 130.575H277.124V138.254H282.373V139.903H277.124V155H275.042V139.903H271.441V138.254H275.042V130.575ZM295.701 155.347C293.936 155.347 292.374 154.957 291.015 154.176C289.656 153.395 288.586 152.339 287.805 151.009C287.053 149.649 286.677 148.131 286.677 146.454C286.677 144.805 287.082 143.301 287.892 141.942C288.701 140.582 289.786 139.498 291.145 138.688C292.534 137.878 294.066 137.473 295.744 137.473C297.768 137.473 299.46 138.066 300.82 139.252C302.208 140.438 303.206 141.985 303.813 143.894L289.323 149.49C289.873 150.676 290.697 151.659 291.796 152.44C292.924 153.192 294.24 153.568 295.744 153.568C296.669 153.568 297.552 153.395 298.39 153.048C299.258 152.701 300.024 152.252 300.69 151.703L301.731 153.178C300.921 153.814 299.981 154.335 298.911 154.74C297.87 155.145 296.8 155.347 295.701 155.347ZM288.672 146.367C288.672 146.916 288.73 147.451 288.846 147.972L301.34 143.07C300.82 142.028 300.082 141.132 299.128 140.38C298.173 139.599 297.002 139.209 295.614 139.209C294.312 139.209 293.141 139.527 292.1 140.163C291.059 140.799 290.22 141.652 289.583 142.723C288.976 143.793 288.672 145.007 288.672 146.367Z" fill="black"/>
<circle cx="200" cy="200" r="197.5" stroke="#FCDCC7" stroke-width="5" stroke-linecap="round" stroke-linejoin="round" stroke-dasharray="10 30"/>
<defs>
<clipPath id="clip0_1181_157">
<rect width="299.643" height="299.643" fill="white" transform="translate(50 50)"/>
</clipPath>
</defs>
</svg>
