<svg width="39" height="39" viewBox="0 0 39 39" fill="none" xmlns="http://www.w3.org/2000/svg">
<g clip-path="url(#clip0_1271_199)">
<path d="M29.8536 24.1603C28.6133 22.9274 26.6154 22.9274 25.3751 24.1603C24.8626 24.6728 24.5432 25.3412 24.4615 26.0542L19.0917 20.6844C17.0269 18.6122 14.1972 17.4833 11.2709 17.5502C11.3526 17.06 11.4714 16.5772 11.6274 16.1093C11.7017 15.8939 11.6423 15.6637 11.4863 15.5003L5.78225 9.79622C5.55201 9.56597 5.17322 9.56597 4.94298 9.79622C4.71274 10.0265 4.71274 10.4052 4.94298 10.6355L10.3945 16.087C10.246 16.5995 10.1346 17.1194 10.0603 17.6467C9.53295 17.721 9.01306 17.8324 8.50058 17.9809L3.04906 12.5294C2.81882 12.2992 2.44003 12.2992 2.20979 12.5294C1.97955 12.7596 1.97955 13.1384 2.20979 13.3687L7.91384 19.0727C8.06981 19.2287 8.30748 19.2881 8.52286 19.2138C8.99077 19.0579 9.47354 18.939 9.96373 18.8573C9.88946 21.7836 11.0258 24.6059 13.0906 26.6781L18.4604 32.0479C16.7224 32.241 15.4672 33.8082 15.6603 35.5461C15.742 36.2591 16.0614 36.9276 16.5739 37.4401C17.8142 38.6804 19.8196 38.6804 21.0599 37.4401C22.1368 36.3631 22.2928 34.6772 21.4387 33.4145L22.2408 32.6124C22.471 32.3822 22.471 32.0034 22.2408 31.7731C22.0106 31.5429 21.6318 31.5429 21.4015 31.7731L20.6365 32.5307L13.9373 25.8314C12.0508 23.9746 11.0407 21.3974 11.1521 18.7459C13.8036 18.6419 16.3808 19.6446 18.2524 21.5237L24.9517 28.223L24.1867 28.988C23.9565 29.2256 23.9639 29.597 24.2016 29.8272C24.4318 30.05 24.7957 30.05 25.026 29.8272L25.8281 29.0251C27.2764 30.0055 29.2446 29.6341 30.2324 28.1858C31.0865 26.9232 30.9306 25.2373 29.8536 24.1603ZM20.7851 35.2045C20.7851 36.2963 19.9012 37.1801 18.8095 37.1801C17.7177 37.1801 16.8338 36.2963 16.8338 35.2045C16.8264 34.1127 17.7102 33.2289 18.8095 33.2289C19.9012 33.2289 20.7851 34.1127 20.7851 35.2045ZM29.0144 27.807C28.2419 28.5795 26.9867 28.5795 26.2143 27.807C25.4419 27.0346 25.4419 25.7794 26.2143 25.007C26.9867 24.2346 28.2419 24.2346 29.0144 25.007C29.7868 25.7794 29.7868 27.0346 29.0144 27.807Z" fill="#300080"/>
<path d="M35.9071 21.4345L23.9048 9.42477C23.6745 9.19453 23.2958 9.19453 23.0655 9.42477L22.8873 9.60302L13.9153 0.631029C13.8039 0.519622 13.6553 0.460205 13.4919 0.460205C13.336 0.460205 13.18 0.519622 13.0686 0.631029C11.2712 2.4284 11.2638 5.34727 13.0686 7.15206L16.5668 10.6502C16.7525 10.8359 17.0421 10.8805 17.2798 10.7468C18.2527 10.2046 19.4634 10.316 20.3249 11.029L20.9414 11.5415L20.8745 11.6083C20.6443 11.8386 20.6368 12.2174 20.8745 12.4476L32.8842 24.4573C33.7161 25.2892 35.0678 25.2966 35.8996 24.4647L35.9071 24.4573C36.7389 23.618 36.7389 22.2663 35.9071 21.4345ZM21.7955 10.6948L21.0899 10.1081C19.9758 9.19453 18.4533 8.96429 17.1164 9.50647L13.9153 6.30537C12.7418 5.13188 12.5784 3.28252 13.5291 1.92335L22.048 10.4423L21.7955 10.6948ZM35.0678 23.618C34.6964 23.9894 34.1023 23.9894 33.7309 23.618C33.7309 23.618 33.7309 23.618 33.7235 23.6106L22.1371 12.0243L22.2337 11.9277C22.2411 11.9203 22.2485 11.9129 22.2485 11.9129L23.2958 10.8582L23.474 10.68L35.0604 22.2663C35.4391 22.6377 35.4391 23.2467 35.0678 23.618Z" fill="#300080"/>
</g>
<defs>
<clipPath id="clip0_1271_199">
<rect width="37.91" height="37.91" fill="white" transform="translate(0.329102 0.460205)"/>
</clipPath>
</defs>
</svg>
