<svg width="39" height="39" viewBox="0 0 39 39" fill="none" xmlns="http://www.w3.org/2000/svg">
<g clip-path="url(#clip0_1271_232)">
<path d="M19.2842 26.9207C18.0529 26.9207 17.0513 27.9224 17.0513 29.1536V30.9924C17.0513 31.2991 17.2999 31.5477 17.6066 31.5477H20.9618C21.2685 31.5477 21.5171 31.2991 21.5171 30.9924V29.1536C21.5171 27.9224 20.5154 26.9207 19.2842 26.9207V26.9207ZM20.4064 30.4371H18.1619V29.1536C18.1619 28.5348 18.6653 28.0313 19.2842 28.0313C19.903 28.0313 20.4064 28.5348 20.4064 29.1536V30.4371Z" fill="#300080"/>
<path d="M37.5941 20.4763L34.4595 12.2451C35.0395 12.1271 35.4773 11.6132 35.4773 10.9989V9.46923C35.4773 8.76797 34.9068 8.19747 34.2056 8.19747H27.8236C27.7097 6.69536 27.2056 5.25974 26.3484 4.0113C26.1748 3.75844 25.8291 3.69425 25.5763 3.86788C25.3235 4.04151 25.2593 4.38721 25.4329 4.64C26.2866 5.88333 26.7379 7.34042 26.7379 8.85378C26.7379 12.9638 23.3941 16.3076 19.2841 16.3076C15.174 16.3076 11.8303 12.9638 11.8303 8.85378C11.8303 4.74373 15.174 1.39995 19.284 1.39995C20.892 1.39995 22.4234 1.90411 23.7125 2.85793C23.9591 3.04037 24.3068 2.9884 24.4892 2.74183C24.6716 2.49527 24.6196 2.14756 24.3731 1.96512C22.8914 0.868767 21.1316 0.289307 19.284 0.289307C14.7823 0.289307 11.0807 3.78043 10.7444 8.19747H4.36243C3.66117 8.19747 3.09074 8.76797 3.09074 9.46923V10.9989C3.09074 11.6132 3.52856 12.1271 4.10854 12.2451L0.973927 20.4762C0.825027 20.8671 0.877894 21.3061 1.11528 21.6506C1.27787 21.8865 1.51274 22.0572 1.77907 22.1414V36.9036C1.77907 37.618 2.36038 38.1993 3.07482 38.1993H35.4933C36.2077 38.1993 36.789 37.618 36.789 36.9036V27.4465C36.789 27.1398 36.5404 26.8912 36.2337 26.8912C35.927 26.8912 35.6784 27.1398 35.6784 27.4465V36.9036C35.6784 37.0056 35.5953 37.0887 35.4933 37.0887H23.7116V29.1536C23.7116 26.7123 21.7254 24.7262 19.2841 24.7262C16.8428 24.7262 14.8566 26.7124 14.8566 29.1536V37.0887H3.07475C2.97272 37.0887 2.88964 37.0056 2.88964 36.9036V22.2006H35.6783V24.7864C35.6783 25.0931 35.9269 25.3417 36.2336 25.3417C36.5403 25.3417 36.7889 25.0931 36.7889 24.7864V22.1414C37.0552 22.0572 37.2901 21.8865 37.4527 21.6506C37.6901 21.3061 37.743 20.8671 37.5941 20.4763V20.4763ZM15.9672 29.1536C15.9672 27.3247 17.4551 25.8368 19.284 25.8368C21.1129 25.8368 22.6008 27.3248 22.6008 29.1536V37.0887H15.9671V29.1536H15.9672ZM34.3666 9.46923V10.9989C34.3666 11.0877 34.2944 11.16 34.2056 11.16H27.5328C27.6991 10.566 27.8029 9.94629 27.8364 9.30811H34.2055C34.2944 9.30811 34.3666 9.38038 34.3666 9.46923V9.46923ZM2.01186 20.8715L5.28723 12.2706H7.30986C7.61654 12.2706 7.86518 12.022 7.86518 11.7153C7.86518 11.4086 7.61654 11.16 7.30986 11.16H4.36243C4.27358 11.16 4.20139 11.0877 4.20139 10.9989V9.46923C4.20139 9.38038 4.27365 9.30811 4.36243 9.30811H10.7315C10.7651 9.94621 10.869 10.566 11.0352 11.16H9.96993C9.66324 11.16 9.4146 11.4086 9.4146 11.7153C9.4146 12.022 9.66324 12.2706 9.96993 12.2706H11.4314C11.5985 12.6533 11.7928 13.0214 12.0118 13.3726H10.691C9.93646 13.3726 9.32257 13.9865 9.32257 14.7411V15.9751H9.12295C8.81626 15.9751 8.56763 16.2237 8.56763 16.5304C8.56763 16.8371 8.81626 17.0857 9.12295 17.0857H11.4877C11.7944 17.0857 12.0431 16.8371 12.0431 16.5304C12.0431 16.2237 11.7944 15.9751 11.4877 15.9751H10.4332V14.7411C10.4332 14.5989 10.5489 14.4833 10.691 14.4833H12.835C14.4061 16.2808 16.7146 17.4183 19.2839 17.4183C21.8533 17.4183 24.1617 16.2808 25.7329 14.4833H27.8768C28.019 14.4833 28.1347 14.5989 28.1347 14.7411V15.9751H27.0802C26.7735 15.9751 26.5249 16.2237 26.5249 16.5304C26.5249 16.8371 26.7735 17.0857 27.0802 17.0857H29.445C29.7517 17.0857 30.0003 16.8371 30.0003 16.5304C30.0003 16.2237 29.7517 15.9751 29.445 15.9751H29.2453V14.7411C29.2453 13.9865 28.6314 13.3726 27.8768 13.3726H26.5561C26.7751 13.0214 26.9694 12.6533 27.1365 12.2706H33.2807L36.5561 20.8715C36.5823 20.9403 36.5561 20.9942 36.5382 21.0203C36.5202 21.0464 36.4792 21.09 36.4055 21.09H2.16239C2.08872 21.09 2.0477 21.0464 2.02971 21.0203C2.01171 20.9942 1.98565 20.9403 2.01186 20.8715V20.8715Z" fill="#300080"/>
<path d="M11.6535 25.043H5.7635C5.05394 25.043 4.47663 25.6202 4.47663 26.3298V31.8809C4.15432 32.0245 3.92871 32.3472 3.92871 32.7223V33.9631C3.92871 34.4709 4.34194 34.8842 4.84981 34.8842H12.5218C13.0296 34.8842 13.4429 34.4709 13.4429 33.9631V32.7223C13.4429 32.3651 13.2381 32.0556 12.9403 31.9028V26.3298C12.9403 25.6203 12.363 25.043 11.6535 25.043ZM5.7635 26.1536H11.6535C11.7506 26.1536 11.8296 26.2326 11.8296 26.3298V31.8012H5.58727V26.3298C5.58727 26.2327 5.66635 26.1536 5.7635 26.1536V26.1536ZM12.3322 33.7735H5.03936V32.9118H12.3322V33.7735Z" fill="#300080"/>
<path d="M32.8046 25.043H26.9146C26.205 25.043 25.6277 25.6202 25.6277 26.3298V31.8919C25.3177 32.0403 25.1025 32.3562 25.1025 32.7223V33.9631C25.1025 34.4709 25.5158 34.8842 26.0236 34.8842H33.6956C34.2035 34.8842 34.6167 34.4709 34.6167 33.9631V32.7223C34.6167 32.3562 34.4015 32.0403 34.0915 31.8919V26.3298C34.0914 25.6203 33.5141 25.043 32.8046 25.043V25.043ZM26.9146 26.1536H32.8046C32.9018 26.1536 32.9808 26.2326 32.9808 26.3298V31.8012H26.7384V26.3298C26.7384 26.2327 26.8174 26.1536 26.9146 26.1536ZM33.506 33.7735H26.2131V32.9118H33.506V33.7735Z" fill="#300080"/>
<path d="M20.9616 32.3684C20.6549 32.3684 20.4062 32.617 20.4062 32.9237V33.1758C20.4062 33.4825 20.6549 33.7312 20.9616 33.7312C21.2683 33.7312 21.5169 33.4825 21.5169 33.1758V32.9237C21.5169 32.617 21.2683 32.3684 20.9616 32.3684Z" fill="#300080"/>
<path d="M17.9598 13.8279C18.0097 13.8314 18.0594 13.8331 18.109 13.8331C18.3686 13.8331 18.6221 13.7855 18.8643 13.6914C19.1348 13.5862 19.4326 13.5862 19.7033 13.6914C19.9909 13.8034 20.2945 13.8494 20.6057 13.828C21.6179 13.7588 22.4496 12.9453 22.5402 11.9356C22.6062 11.2016 22.2929 10.5023 21.7024 10.0649C21.4552 9.88177 21.2939 9.6238 21.2482 9.33852C21.1705 8.85265 20.9208 8.4072 20.5454 8.08438C19.7655 7.41377 18.5925 7.4177 17.8167 8.09319C17.4182 8.4403 17.1672 8.91936 17.1099 9.44203C17.079 9.72495 16.9419 9.98684 16.7242 10.1794C16.2275 10.6184 15.9728 11.2503 16.0253 11.9131C16.1061 12.934 16.9378 13.7571 17.9598 13.8279V13.8279ZM17.4597 11.0116C17.8849 10.6356 18.1528 10.1212 18.214 9.56309C18.2407 9.31867 18.3587 9.0941 18.5461 8.93084C18.7283 8.77224 18.9573 8.69286 19.1863 8.69286C19.4131 8.69286 19.6399 8.77076 19.8212 8.92662C20.0005 9.08077 20.1147 9.28395 20.1515 9.51429C20.2434 10.0881 20.5594 10.6006 21.0413 10.9575C21.3182 11.1626 21.465 11.4912 21.434 11.8364C21.3917 12.3079 21.003 12.6877 20.5299 12.7201C20.383 12.7301 20.2402 12.7087 20.1059 12.6565C19.5755 12.4501 18.9916 12.4501 18.4615 12.6565C18.3268 12.7088 18.1838 12.7302 18.0365 12.7201C17.5588 12.687 17.1702 12.3025 17.1324 11.8256C17.1077 11.5139 17.227 11.2173 17.4597 11.0116V11.0116Z" fill="#300080"/>
<path d="M17.3382 7.49717C18.2481 7.49717 18.9884 6.75689 18.9884 5.84697C18.9884 4.93706 18.2481 4.19678 17.3382 4.19678C16.4283 4.19678 15.688 4.93706 15.688 5.84697C15.688 6.75689 16.4283 7.49717 17.3382 7.49717V7.49717ZM17.3382 5.30742C17.6357 5.30742 17.8777 5.54947 17.8777 5.84697C17.8777 6.14448 17.6357 6.38652 17.3382 6.38652C17.0407 6.38652 16.7986 6.14448 16.7986 5.84697C16.7986 5.54947 17.0407 5.30742 17.3382 5.30742Z" fill="#300080"/>
<path d="M22.8805 5.84722C22.8805 4.9373 22.1402 4.19702 21.2303 4.19702C20.3204 4.19702 19.5801 4.9373 19.5801 5.84722C19.5801 6.75713 20.3204 7.49741 21.2303 7.49741C22.1402 7.49741 22.8805 6.75713 22.8805 5.84722ZM20.6908 5.84722C20.6908 5.54971 20.9328 5.30767 21.2303 5.30767C21.5279 5.30767 21.7699 5.54971 21.7699 5.84722C21.7699 6.14472 21.5279 6.38677 21.2303 6.38677C20.9328 6.38677 20.6908 6.14472 20.6908 5.84722Z" fill="#300080"/>
<path d="M12.9478 8.48174C12.9478 9.39165 13.688 10.1319 14.5979 10.1319C15.5079 10.1319 16.2481 9.39165 16.2481 8.48174C16.2481 7.57182 15.5079 6.83154 14.5979 6.83154C13.688 6.83154 12.9478 7.57182 12.9478 8.48174ZM15.1375 8.48174C15.1375 8.77924 14.8955 9.02129 14.5979 9.02129C14.3004 9.02129 14.0584 8.77924 14.0584 8.48174C14.0584 8.18423 14.3004 7.94219 14.5979 7.94219C14.8955 7.94219 15.1375 8.18423 15.1375 8.48174Z" fill="#300080"/>
<path d="M23.97 10.1319C24.8799 10.1319 25.6202 9.39165 25.6202 8.48174C25.6202 7.57182 24.8799 6.83154 23.97 6.83154C23.0601 6.83154 22.3198 7.57182 22.3198 8.48174C22.3198 9.39165 23.0601 10.1319 23.97 10.1319ZM23.97 7.94219C24.2675 7.94219 24.5096 8.18423 24.5096 8.48174C24.5096 8.77924 24.2675 9.02129 23.97 9.02129C23.6725 9.02129 23.4305 8.77924 23.4305 8.48174C23.4305 8.18423 23.6725 7.94219 23.97 7.94219Z" fill="#300080"/>
</g>
<defs>
<clipPath id="clip0_1271_232">
<rect width="37.91" height="37.91" fill="white" transform="translate(0.329102 0.289551)"/>
</clipPath>
</defs>
</svg>
