<svg width="39" height="39" viewBox="0 0 39 39" fill="none" xmlns="http://www.w3.org/2000/svg">
<g clip-path="url(#clip0_1271_208)">
<path d="M33.453 24.7996C33.0441 24.7996 32.7126 25.1311 32.7126 25.5401C32.7126 31.121 28.1722 35.6613 22.5913 35.6613C17.0104 35.6613 12.47 31.121 12.47 25.5401V23.9863L16.5809 16.4248C19.5333 14.362 20.937 10.6466 20.4909 6.11003C21.5358 5.76618 22.2926 4.7817 22.2926 3.62315C22.2926 2.17969 21.1183 1.00537 19.6748 1.00537C18.2313 1.00537 17.057 2.17969 17.057 3.62315C17.057 4.83598 17.8862 5.85851 19.0073 6.15446C19.4396 10.2923 18.1873 13.6246 15.5281 15.3502C13.2024 16.8593 10.164 16.8783 7.78752 15.3984C5.0369 13.6855 3.6894 10.3345 4.04488 6.1512C5.16019 5.8514 5.98384 4.83183 5.98384 3.62315C5.98384 2.17969 4.80952 1.00537 3.36605 1.00537C1.92259 1.00537 0.748047 2.17962 0.748047 3.62308C0.748047 4.78622 1.51076 5.7741 2.5621 6.11418C2.18433 10.8303 3.78158 14.6473 7.00304 16.6544L10.9891 23.9862V25.5401C10.9891 28.627 12.1992 31.5373 14.3966 33.7347C16.594 35.932 19.5042 37.1422 22.5912 37.1422C25.6783 37.1422 28.5885 35.932 30.7859 33.7347C32.9833 31.5373 34.1934 28.6271 34.1934 25.5401C34.1934 25.1311 33.8619 24.7996 33.453 24.7996ZM18.5377 3.62308C18.5377 2.99616 19.0477 2.48615 19.6747 2.48615C20.3016 2.48615 20.8116 2.99616 20.8116 3.62308C20.8116 4.25 20.3016 4.76008 19.6747 4.76008C19.0477 4.76008 18.5377 4.25 18.5377 3.62308ZM2.2289 3.62308C2.2289 2.99616 2.73891 2.48615 3.36583 2.48615C3.99275 2.48615 4.50276 2.99616 4.50276 3.62308C4.50276 4.25 3.99275 4.76008 3.36583 4.76008C2.73891 4.76008 2.2289 4.25 2.2289 3.62308ZM9.22373 17.6385C10.0102 17.8627 10.8212 17.9751 11.6313 17.975C12.5257 17.975 13.4186 17.8372 14.2758 17.5642L11.7296 22.2477L9.22373 17.6385Z" fill="#300080"/>
<path d="M33.4533 22.766C33.0444 22.766 32.7129 23.0975 32.7129 23.5064V23.5168C32.7129 23.9257 33.0444 24.2572 33.4533 24.2572C33.8623 24.2572 34.1937 23.9257 34.1937 23.5168V23.5064C34.1937 23.0975 33.8623 22.766 33.4533 22.766Z" fill="#300080"/>
<path d="M33.453 9.57532C30.583 9.57532 28.248 11.9184 28.248 14.7984C28.248 17.4261 30.1921 19.6059 32.7125 19.9678V21.4576C32.7125 21.8665 33.044 22.198 33.453 22.198C33.8619 22.198 34.1934 21.8665 34.1934 21.4576V19.9679C36.7139 19.606 38.658 17.4262 38.658 14.7984C38.658 11.9184 36.3231 9.57532 33.453 9.57532ZM33.453 15.7118C32.9531 15.7118 32.5464 15.3021 32.5464 14.7984C32.5464 14.2948 32.9531 13.8851 33.453 13.8851C33.953 13.8851 34.3597 14.2949 34.3597 14.7984C34.3597 15.3021 33.953 15.7118 33.453 15.7118ZM34.1934 18.4662V17.0742C35.1485 16.761 35.8406 15.8595 35.8406 14.7984C35.8406 13.4783 34.7695 12.4043 33.453 12.4043C32.1366 12.4043 31.0655 13.4783 31.0655 14.7984C31.0655 15.8594 31.7575 16.7609 32.7125 17.0741V18.4662C31.0126 18.1202 29.7289 16.6072 29.7289 14.7984C29.7289 12.7349 31.3995 11.0562 33.453 11.0562C35.5065 11.0562 37.1772 12.7349 37.1772 14.7984C37.1772 16.6073 35.8934 18.1203 34.1934 18.4662Z" fill="#300080"/>
<path d="M22.5913 25.4941C20.4142 25.4941 18.6431 27.2712 18.6431 29.4555C18.6431 31.6397 20.4142 33.4168 22.5913 33.4168C24.7684 33.4168 26.5397 31.6398 26.5397 29.4555C26.5397 27.2712 24.7684 25.4941 22.5913 25.4941ZM22.5913 31.9359C21.2308 31.9359 20.1239 30.8231 20.1239 29.4554C20.1239 28.0877 21.2308 26.9749 22.5913 26.9749C23.9519 26.9749 25.0588 28.0876 25.0588 29.4554C25.0588 30.8231 23.9519 31.9359 22.5913 31.9359Z" fill="#300080"/>
<path d="M27.3263 21.4095C26.0285 21.4095 24.9727 22.526 24.9727 23.8983C24.9727 25.2706 26.0285 26.3871 27.3263 26.3871C28.6241 26.3871 29.68 25.2706 29.68 23.8983C29.68 22.526 28.6241 21.4095 27.3263 21.4095ZM27.3263 24.9061C26.845 24.9061 26.4535 24.454 26.4535 23.8982C26.4535 23.3425 26.845 22.8903 27.3263 22.8903C27.8075 22.8903 28.1992 23.3425 28.1992 23.8982C28.1992 24.454 27.8075 24.9061 27.3263 24.9061Z" fill="#300080"/>
<path d="M22.6436 19.2239C21.3458 19.2239 20.29 20.3404 20.29 21.7127C20.29 23.085 21.3459 24.2015 22.6436 24.2015C23.9415 24.2015 24.9973 23.085 24.9973 21.7127C24.9973 20.3404 23.9415 19.2239 22.6436 19.2239ZM22.6436 22.7206C22.1624 22.7206 21.7709 22.2685 21.7709 21.7127C21.7709 21.1569 22.1624 20.7047 22.6436 20.7047C23.1249 20.7047 23.5165 21.1569 23.5165 21.7127C23.5165 22.2684 23.1249 22.7206 22.6436 22.7206Z" fill="#300080"/>
<path d="M17.856 21.4094C16.5583 21.4094 15.5024 22.5259 15.5024 23.8982C15.5024 25.2705 16.5583 26.387 17.856 26.387C19.1539 26.387 20.2097 25.2705 20.2097 23.8982C20.2097 22.5259 19.1539 21.4094 17.856 21.4094ZM17.856 24.9062C17.3748 24.9062 16.9833 24.454 16.9833 23.8982C16.9833 23.3425 17.3748 22.8904 17.856 22.8904C18.3373 22.8904 18.7289 23.3425 18.7289 23.8982C18.7289 24.454 18.3373 24.9062 17.856 24.9062Z" fill="#300080"/>
</g>
<defs>
<clipPath id="clip0_1271_208">
<rect width="37.91" height="37.91" fill="white" transform="translate(0.748047 0.118896)"/>
</clipPath>
</defs>
</svg>
