<svg width="79" height="80" viewBox="0 0 79 80" fill="none" xmlns="http://www.w3.org/2000/svg">
<path fill-rule="evenodd" clip-rule="evenodd" d="M39.498 0.440918C17.6849 0.440918 0 18.5746 0 40.9432C0 58.8371 11.3152 74.0174 27.0129 79.3697C28.99 79.7446 29.7091 78.4974 29.7091 77.4205C29.7091 76.4609 29.6746 73.9156 29.6574 70.5323C18.6693 72.9821 16.351 65.1022 16.351 65.1022C14.5542 60.4239 11.9644 59.1798 11.9644 59.1798C8.37805 56.6688 12.2369 56.7176 12.2369 56.7176C16.2011 57.0052 18.2875 60.8901 18.2875 60.8901C21.8101 67.0794 27.5335 65.2881 29.783 64.2579C30.1405 61.6358 31.1635 59.8548 32.2907 58.8402C23.5207 57.8183 14.3 54.3436 14.3 38.8248C14.3 34.4019 15.8385 30.786 18.3645 27.9541C17.9603 26.9343 16.6022 22.8168 18.7524 17.2381C18.7524 17.2381 22.0683 16.1498 29.6159 21.393C32.7647 20.4906 36.1445 20.0399 39.5041 20.0264C42.8585 20.041 46.2393 20.4906 49.3922 21.393C56.9347 16.1498 60.2456 17.2381 60.2456 17.2381C62.4009 22.8168 61.0437 26.9343 60.6386 27.9541C63.1706 30.786 64.698 34.4019 64.698 38.8248C64.698 54.38 55.4641 57.8069 46.6647 58.8059C48.0806 60.0573 49.3446 62.534 49.3446 66.313C49.3446 71.7245 49.297 76.0912 49.297 77.4194C49.297 78.5046 50.007 79.7664 52.0124 79.3645C67.6929 74.0008 79 58.8319 79 40.9432C79 18.5746 61.3151 0.440918 39.498 0.440918V0.440918Z" fill="white"/>
</svg>
