<svg width="67" height="67" viewBox="0 0 67 67" fill="none" xmlns="http://www.w3.org/2000/svg">
<path d="M33.5 0C39.1384 0 43.7416 0.066075 47.3097 0.198225C50.3491 0.330375 53.0582 0.858974 55.4369 1.78402C57.7275 2.66502 59.7097 3.94247 61.3836 5.61637C63.0575 7.29027 64.335 9.27252 65.216 11.5631C66.141 13.9418 66.6696 16.6509 66.8018 19.6903C66.9339 23.2584 67 27.8616 67 33.5C67 39.1384 66.9339 43.7416 66.8018 47.3097C66.6696 50.3491 66.141 53.0582 65.216 55.4369C64.335 57.7275 63.0575 59.7097 61.3836 61.3836C59.7097 63.0575 57.7275 64.335 55.4369 65.216C53.0582 66.141 50.3491 66.6696 47.3097 66.8018C43.7416 66.9339 39.1384 67 33.5 67C27.8616 67 23.2584 66.9339 19.6903 66.8018C16.6509 66.6696 13.9418 66.141 11.5631 65.216C9.27252 64.335 7.29027 63.0575 5.61637 61.3836C3.94247 59.7097 2.66502 57.7275 1.78402 55.4369C0.858974 53.0582 0.330375 50.3491 0.198225 47.3097C0.066075 43.7416 0 39.1384 0 33.5C0 27.8616 0.066075 23.2584 0.198225 19.6903C0.330375 16.6509 0.858974 13.9418 1.78402 11.5631C2.66502 9.27252 3.94247 7.29027 5.61637 5.61637C7.29027 3.94247 9.27252 2.66502 11.5631 1.78402C13.9418 0.858974 16.6509 0.330375 19.6903 0.198225C23.2584 0.066075 27.8616 0 33.5 0ZM33.5 4.36095C27.6414 4.36095 22.8619 4.42702 19.1617 4.55917C16.783 4.64727 14.5805 5.06575 12.5542 5.8146C9.38264 7.1361 7.1361 9.38264 5.8146 12.5542C5.06575 14.5805 4.64727 16.783 4.55917 19.1617C4.42702 22.8619 4.36095 27.6414 4.36095 33.5C4.36095 39.3586 4.42702 44.1381 4.55917 47.8383C4.64727 50.217 5.06575 52.4195 5.8146 54.4458C7.1361 57.6174 9.38264 59.8639 12.5542 61.1854C14.5805 61.9343 16.783 62.3527 19.1617 62.4408C22.8619 62.573 27.6414 62.6391 33.5 62.6391C39.3586 62.6391 44.1381 62.573 47.8383 62.4408C50.217 62.3527 52.4195 61.9343 54.4458 61.1854C57.6174 59.8639 59.8639 57.6174 61.1854 54.4458C61.9343 52.4195 62.3527 50.217 62.4408 47.8383C62.573 44.1381 62.6391 39.3586 62.6391 33.5C62.6391 27.6414 62.573 22.8619 62.4408 19.1617C62.3527 16.783 61.9343 14.5805 61.1854 12.5542C59.8639 9.38264 57.6174 7.1361 54.4458 5.8146C52.4195 5.06575 50.217 4.64727 47.8383 4.55917C44.1381 4.42702 39.3586 4.36095 33.5 4.36095ZM33.5 46.9132C37.2002 46.9132 40.3608 45.6027 42.9818 42.9818C45.6027 40.3608 46.9132 37.2002 46.9132 33.5C46.9132 29.7998 45.6027 26.6392 42.9818 24.0182C40.3608 21.3973 37.2002 20.0868 33.5 20.0868C29.7998 20.0868 26.6392 21.3973 24.0182 24.0182C21.3973 26.6392 20.0868 29.7998 20.0868 33.5C20.0868 37.2002 21.3973 40.3608 24.0182 42.9818C26.6392 45.6027 29.7998 46.9132 33.5 46.9132ZM33.5 16.3205C38.2574 16.3205 42.31 17.9944 45.6578 21.3422C49.0056 24.69 50.6795 28.7426 50.6795 33.5C50.6795 38.2574 49.0056 42.31 45.6578 45.6578C42.31 49.0056 38.2574 50.6795 33.5 50.6795C28.7426 50.6795 24.69 49.0056 21.3422 45.6578C17.9944 42.31 16.3205 38.2574 16.3205 33.5C16.3205 28.7426 17.9944 24.69 21.3422 21.3422C24.69 17.9944 28.7426 16.3205 33.5 16.3205ZM55.4369 15.6598C55.4369 16.761 55.0404 17.6971 54.2475 18.4679C53.4546 19.2388 52.4855 19.6243 51.3402 19.6243C50.239 19.6243 49.3029 19.2388 48.5321 18.4679C47.7612 17.6971 47.3757 16.761 47.3757 15.6598C47.3757 14.5145 47.7612 13.5454 48.5321 12.7525C49.3029 11.9596 50.239 11.5631 51.3402 11.5631C52.4415 11.5631 53.3996 11.9706 54.2145 12.7855C55.0294 13.6004 55.4369 14.5585 55.4369 15.6598Z" fill="white"/>
</svg>
