<svg width="30" height="30" viewBox="0 0 30 30" fill="none" xmlns="http://www.w3.org/2000/svg">
<path d="M29.9857 15.2806C29.9857 14.0515 29.8836 13.1546 29.6627 12.2245H15.2988V17.772H23.7301C23.5602 19.1506 22.6423 21.2268 20.6024 22.6219L20.5738 22.8076L25.1154 26.2454L25.43 26.2761C28.3198 23.6683 29.9857 19.8315 29.9857 15.2806Z" fill="#4285F4"/>
<path d="M15.2988 29.8969C19.4295 29.8969 22.8972 28.5681 25.43 26.2761L20.6024 22.6219C19.3105 23.5022 17.5766 24.1167 15.2988 24.1167C11.2532 24.1167 7.81945 21.5091 6.59543 17.9049L6.41602 17.9198L1.69359 21.4908L1.63184 21.6586C4.14762 26.5417 9.31523 29.8969 15.2988 29.8969Z" fill="#34A853"/>
<path d="M6.59543 17.905C6.27246 16.9749 6.08555 15.9782 6.08555 14.9485C6.08555 13.9187 6.27246 12.9221 6.57844 11.992L6.56988 11.7939L1.78828 8.16553L1.63184 8.23824C0.594961 10.2646 0 12.5401 0 14.9485C0 17.3569 0.594961 19.6323 1.63184 21.6587L6.59543 17.905Z" fill="#FBBC05"/>
<path d="M15.2988 5.78004C18.1716 5.78004 20.1094 6.99252 21.2143 8.00576L25.532 3.8866C22.8803 1.47824 19.4295 0 15.2988 0C9.31523 0 4.14762 3.35508 1.63184 8.23821L6.57844 11.992C7.81945 8.38775 11.2532 5.78004 15.2988 5.78004Z" fill="#EB4335"/>
</svg>
