<svg width="17" height="18" viewBox="0 0 17 18" fill="white" xmlns="http://www.w3.org/2000/svg">
<g clip-path="url(#clip0_1276_68)">
<path d="M12.5437 10.6957C12.2995 9.81068 11.7718 9.03022 11.0414 8.47403C10.311 7.91784 9.4183 7.61664 8.50024 7.61664C7.58219 7.61664 6.68949 7.91784 5.95909 8.47403C5.2287 9.03022 4.70095 9.81068 4.45682 10.6957L3.87504 12.8047C3.77058 13.1833 3.755 13.581 3.8295 13.9667C3.904 14.3524 4.06658 14.7156 4.30456 15.0281C4.54253 15.3407 4.84948 15.594 5.20145 15.7684C5.55343 15.9427 5.94093 16.0335 6.33374 16.0335H10.6667C11.0596 16.0335 11.447 15.9427 11.799 15.7684C12.151 15.594 12.4579 15.3407 12.6959 15.0281C12.9339 14.7156 13.0965 14.3524 13.171 13.9667C13.2455 13.581 13.2299 13.1833 13.1254 12.8047L12.5437 10.6957ZM11.8843 14.4099C11.7421 14.5981 11.5581 14.7506 11.3467 14.8553C11.1354 14.9601 10.9026 15.0141 10.6667 15.0133H6.33374C6.09805 15.0133 5.86555 14.9588 5.65436 14.8542C5.44317 14.7496 5.259 14.5976 5.11621 14.4101C4.97342 14.2225 4.87587 14.0046 4.83117 13.7732C4.78647 13.5418 4.79582 13.3032 4.8585 13.076L5.44028 10.967C5.62504 10.2973 6.02442 9.70662 6.57717 9.28571C7.12991 8.86481 7.80548 8.63687 8.50024 8.63687C9.195 8.63687 9.87057 8.86481 10.4233 9.28571C10.9761 9.70662 11.3754 10.2973 11.5602 10.967L12.142 13.076C12.2056 13.3031 12.2154 13.5419 12.1706 13.7734C12.1259 14.005 12.0279 14.223 11.8843 14.4101V14.4099Z" fill="white"/>
<path d="M4.99639 8.32794C5.08515 7.77319 4.96745 7.17933 4.66482 6.65532C4.3622 6.13131 3.90667 5.73243 3.38199 5.53193C2.8201 5.31733 2.247 5.35151 1.76768 5.62812C0.814829 6.17827 0.564078 7.53417 1.20883 8.65068C1.51135 9.17469 1.96691 9.57366 2.49159 9.77407C2.72402 9.86465 2.97107 9.91188 3.22051 9.91342C3.53128 9.91455 3.83678 9.83326 4.1059 9.67785C4.58493 9.40121 4.9012 8.9218 4.99639 8.32794ZM3.98893 8.16668C3.94334 8.45135 3.80369 8.67424 3.59573 8.79431C3.38776 8.91437 3.12493 8.92381 2.85553 8.82099C2.54904 8.70395 2.27798 8.46229 2.09224 8.14057C1.73516 7.52206 1.82003 6.77602 2.27779 6.51166C2.39287 6.44636 2.52319 6.41272 2.6555 6.41416C2.77961 6.41545 2.90244 6.4394 3.01793 6.48485C3.32441 6.60195 3.59547 6.84358 3.78122 7.1653C3.96696 7.48702 4.0407 7.84273 3.98893 8.16668Z" fill="white"/>
<path d="M5.10708 6.21438C5.46932 6.50396 5.88299 6.65476 6.30131 6.65473C6.42661 6.65469 6.55155 6.64121 6.67398 6.61453C7.74913 6.3808 8.40102 5.16572 8.12716 3.90591C7.99867 3.31462 7.68629 2.79587 7.2476 2.44514C6.77782 2.06957 6.22135 1.92741 5.6807 2.04499C4.60558 2.27869 3.95369 3.49377 4.22752 4.75358C4.35604 5.3449 4.66842 5.86365 5.10708 6.21438ZM5.89737 3.04194C5.94694 3.03125 5.99752 3.0259 6.04823 3.026C6.23787 3.026 6.43292 3.10019 6.61053 3.24219C6.86677 3.44703 7.05133 3.75976 7.13021 4.1228C7.28197 4.82085 6.9738 5.50545 6.45728 5.61774C6.2226 5.66875 5.96933 5.59772 5.74418 5.41768C5.48794 5.21281 5.30338 4.90008 5.2245 4.53707C5.07271 3.83883 5.38088 3.15423 5.89737 3.04194Z" fill="white"/>
<path d="M15.233 5.62812C14.7539 5.35151 14.1805 5.31733 13.6187 5.53193C13.094 5.73237 12.6385 6.13131 12.336 6.65532C12.0334 7.17933 11.9157 7.77332 12.0044 8.32794C12.0995 8.9218 12.4157 9.40121 12.8949 9.67785C13.164 9.83328 13.4695 9.91456 13.7803 9.91342C14.0297 9.91188 14.2768 9.86465 14.5092 9.77407C15.0339 9.57366 15.4894 9.17469 15.792 8.65068C16.4366 7.53417 16.1859 6.17827 15.233 5.62812ZM14.9085 8.14057C14.7227 8.46229 14.4517 8.70395 14.1452 8.82099C13.8759 8.92391 13.613 8.91444 13.4051 8.79431C13.1971 8.67418 13.0575 8.45135 13.0119 8.16668C12.96 7.84273 13.0337 7.48715 13.2195 7.16559C13.4053 6.84403 13.6763 6.60223 13.9828 6.48513C14.0983 6.43965 14.2211 6.41565 14.3452 6.41432C14.4775 6.41287 14.6078 6.44651 14.7229 6.51182C15.1807 6.77596 15.2656 7.5219 14.9085 8.14057Z" fill="white"/>
<path d="M10.3267 6.6146C10.4491 6.64128 10.5741 6.65476 10.6994 6.6548C11.1177 6.6548 11.5315 6.50403 11.8936 6.21445C12.3323 5.86374 12.6446 5.34496 12.7732 4.75368C13.047 3.49387 12.3951 2.27879 11.32 2.04509C10.7794 1.92757 10.2229 2.06964 9.75309 2.44524C9.31439 2.79594 9.00202 3.31472 8.87353 3.90597C8.59967 5.16579 9.25155 6.38087 10.3267 6.6146ZM9.87048 4.12271C9.94935 3.75967 10.1339 3.44681 10.3902 3.2421C10.5678 3.1001 10.7628 3.02591 10.9525 3.02591C11.0032 3.02581 11.0537 3.03116 11.1033 3.04185C11.6198 3.15413 11.928 3.83889 11.7762 4.53679C11.6973 4.89983 11.5127 5.21269 11.2566 5.41743C11.0315 5.59744 10.7783 5.66847 10.5435 5.61749C10.0269 5.50536 9.71872 4.82067 9.87048 4.12271Z" fill="white"/>
</g>
<defs>
<clipPath id="clip0_1276_68">
<rect width="16.3235" height="16.3235" fill="white" transform="translate(0.338379 0.985291)"/>
</clipPath>
</defs>
</svg>
