<svg width="86" height="38" viewBox="0 0 86 38" fill="none" xmlns="http://www.w3.org/2000/svg">
<g clip-path="url(#clip0_1296_154)">
<path d="M33.0497 8.57906L30.9136 7.83751C30.3465 7.64063 29.9655 7.10506 29.9655 6.50479V6.08111H30.1331C31.0291 6.08111 31.7582 5.35207 31.7582 4.45598V1.62505C31.7582 0.72904 31.0291 0 30.1331 0H17.0679C16.1719 0 15.4429 0.72904 15.4429 1.62505V4.45606C15.4429 5.29602 16.0834 5.98907 16.9015 6.07267V6.50471C16.9015 7.10492 16.5205 7.64055 15.9534 7.83744L13.8173 8.57899C12.8051 8.9304 12.1249 9.88654 12.1249 10.9581V11.7404C10.9866 11.1263 9.59355 11.0541 8.38389 11.6029C6.27511 12.5597 5.33786 15.0537 6.29458 17.1625L7.36897 19.5305C6.39054 19.5304 5.42856 19.8701 4.66413 20.512C2.89077 22.0011 2.65953 24.6553 4.14878 26.4288L7.44871 30.3586C7.44879 30.3587 7.44886 30.3588 7.44893 30.3589C7.44901 30.359 7.44908 30.359 7.44916 30.3592L8.54997 31.6701C8.65948 31.8005 8.81631 31.8678 8.97439 31.8678C9.10005 31.8678 9.22651 31.8253 9.33025 31.7381C9.56453 31.5414 9.59488 31.192 9.39822 30.9578L8.65334 30.0708L11.4044 27.7607C11.6214 27.9753 11.8622 28.1664 12.1251 28.3307V34.0717C11.9316 33.928 11.7536 33.7628 11.5974 33.5768L10.8336 32.6672C10.6369 32.433 10.2876 32.4027 10.0533 32.5992C9.81909 32.796 9.78866 33.1453 9.98539 33.3796L10.7492 34.2892C11.1283 34.7406 11.5993 35.1052 12.1251 35.3619V35.6793C12.1251 36.9097 13.1261 37.9107 14.3564 37.9107H32.5108C33.7412 37.9107 34.7422 36.9097 34.7422 35.6793V10.9583C34.7421 9.88661 34.0619 8.93063 33.0497 8.57906ZM7.94103 29.2225L4.99696 25.7165C4.46591 25.084 4.21283 24.2825 4.28458 23.4597C4.35625 22.637 4.7441 21.8913 5.37658 21.3602C6.07556 20.7732 6.99897 20.5292 7.89179 20.6827L10.5355 26.5095C10.5937 26.6379 10.6585 26.762 10.7278 26.8823L7.94103 29.2225ZM12.125 26.9136C11.8869 26.6647 11.6909 26.3752 11.5442 26.052L9.65264 21.8827L12.125 20.761V26.9136ZM12.1251 19.5447L9.19497 20.8741L7.30344 16.7049C6.59905 15.1523 7.28915 13.3161 8.84163 12.6117C9.93082 12.1176 11.2222 12.3067 12.1251 13.0737V19.5447ZM16.5506 4.45606V1.62505C16.5506 1.33976 16.7827 1.1077 17.0679 1.1077H30.133C30.4183 1.1077 30.6504 1.33983 30.6504 1.62505V4.45606C30.6504 4.74142 30.4182 4.97348 30.133 4.97348H29.9654H17.0679C16.7827 4.97348 16.5506 4.74142 16.5506 4.45606ZM33.6345 35.6793C33.6345 36.2989 33.1304 36.803 32.5108 36.803H14.3564C13.7367 36.803 13.2327 36.2989 13.2327 35.6793V30.9843H33.6345V35.6793ZM33.6345 29.8767H13.2327V23.877H33.6345V29.8767ZM33.6345 13.3933H29.3666C29.0607 13.3933 28.8128 13.6412 28.8128 13.9471C28.8128 14.253 29.0607 14.501 29.3666 14.501H33.6345V22.7692H13.2327V14.501H27.1303C27.4362 14.501 27.6841 14.2531 27.6841 13.9472C27.6841 13.6413 27.4362 13.3933 27.1303 13.3933H13.2327V10.9582C13.2327 10.3579 13.6137 9.82227 14.1807 9.62538L16.3168 8.88383C17.329 8.53242 18.0093 7.57628 18.0093 6.50471V6.08103H28.8579V6.50464C28.8579 7.57621 29.538 8.53227 30.5504 8.88376L32.6864 9.62531C33.2535 9.82219 33.6345 10.3578 33.6345 10.958V13.3933H33.6345Z" fill="#300080"/>
<path d="M20.5058 16.3738C19.7877 15.6557 18.6192 15.6556 17.9012 16.3738L17.8862 16.3888L17.8756 16.3782C17.1574 15.6601 15.989 15.6602 15.271 16.3782C14.5529 17.0964 14.5529 18.2647 15.271 18.9828L17.372 21.0838C17.5093 21.2213 17.692 21.2969 17.8864 21.2969C18.0807 21.2969 18.2633 21.2212 18.4006 21.0839L20.5058 18.9783C20.8537 18.6305 21.0453 18.1679 21.0453 17.6759C21.0453 17.1841 20.8536 16.7217 20.5058 16.3738ZM19.7224 18.1951L17.8862 20.0317L16.0542 18.1997C15.768 17.9135 15.768 17.4477 16.0542 17.1616C16.1974 17.0184 16.3852 16.9469 16.5732 16.9469C16.7611 16.9469 16.9491 17.0184 17.0922 17.1615L17.3718 17.4412C17.5092 17.5785 17.6918 17.6541 17.886 17.6541C18.0804 17.6541 18.263 17.5784 18.4003 17.4411L18.6843 17.157C18.9707 16.8708 19.4363 16.8709 19.7224 17.157H19.7225C19.8611 17.2956 19.9375 17.48 19.9375 17.676C19.9375 17.8722 19.8611 18.0564 19.7224 18.1951Z" fill="#300080"/>
<path d="M31.2024 27.5076H23.6012C23.2953 27.5076 23.0474 27.7555 23.0474 28.0614C23.0474 28.3673 23.2953 28.6153 23.6012 28.6153H31.2025C31.5084 28.6153 31.7563 28.3673 31.7563 28.0614C31.7563 27.7555 31.5083 27.5076 31.2024 27.5076Z" fill="#300080"/>
<path d="M31.1042 25.1387H29.1564C28.8504 25.1387 28.6025 25.3866 28.6025 25.6925C28.6025 25.9984 28.8504 26.2464 29.1564 26.2464H31.1042C31.4101 26.2464 31.658 25.9984 31.658 25.6925C31.658 25.3866 31.4101 25.1387 31.1042 25.1387Z" fill="#300080"/>
<path d="M26.1607 2.48669H21.0412C20.7352 2.48669 20.4873 2.73467 20.4873 3.04055C20.4873 3.34642 20.7352 3.5944 21.0412 3.5944H26.1607C26.4667 3.5944 26.7146 3.34642 26.7146 3.04055C26.7146 2.73467 26.4667 2.48669 26.1607 2.48669Z" fill="#300080"/>
</g>
<g clip-path="url(#clip1_1296_154)">
<path d="M64.9205 7.20433H63.0596H61.795V3.65538H64.9204C65.2271 3.65538 65.4758 3.40674 65.4758 3.10005V0.555566C65.4758 0.24888 65.2272 0.000244141 64.9205 0.000244141H54.1134C53.8067 0.000244141 53.5581 0.24888 53.5581 0.555566V3.10005C53.5581 3.40674 53.8067 3.65538 54.1134 3.65538H57.2389V7.2044H55.9744H54.1134C53.8067 7.2044 53.5581 7.45304 53.5581 7.75972C53.5581 8.06641 53.8067 8.31505 54.1134 8.31505H55.419V25.8634C55.419 27.0053 56.2515 27.9558 57.3413 28.1415L57.8752 30.5439C57.9317 30.798 58.157 30.9787 58.4173 30.9787H58.9617V37.3549C58.9617 37.6616 59.2103 37.9102 59.517 37.9102C59.8237 37.9102 60.0723 37.6616 60.0723 37.3549V30.9787H60.6168C60.877 30.9787 61.1024 30.798 61.1588 30.5439L61.6927 28.1415C62.7825 27.9558 63.615 27.0053 63.615 25.8634V16.1026V13.2989C63.615 12.9922 63.3664 12.7436 63.0597 12.7436C62.753 12.7436 62.5043 12.9922 62.5043 13.2989V15.5473H56.5296V12.8841H58.486C58.7927 12.8841 59.0414 12.6355 59.0414 12.3288C59.0414 12.0221 58.7927 11.7734 58.486 11.7734H56.5296V8.31497H57.7941H61.2398H62.5043V11.1068C62.5043 11.4135 62.753 11.6622 63.0597 11.6622C63.3664 11.6622 63.615 11.4135 63.615 11.1068V8.31497H64.9206C65.2273 8.31497 65.4759 8.06634 65.4759 7.75965C65.4758 7.45296 65.2272 7.20433 64.9205 7.20433ZM60.1713 29.8681H58.8626L58.4864 28.1749H60.5475L60.1713 29.8681ZM62.5043 16.6579V25.8634C62.5043 26.4842 62.0308 26.9965 61.426 27.0581C61.3856 27.0622 61.3448 27.0644 61.3034 27.0644H61.2398H57.7941H57.7306C57.6892 27.0644 57.6483 27.0622 57.608 27.0581C57.0031 26.9965 56.5296 26.4842 56.5296 25.8634V24.2055H58.486C58.7927 24.2055 59.0414 23.9568 59.0414 23.6502C59.0414 23.3435 58.7927 23.0948 58.486 23.0948H56.5296V20.4317H58.486C58.7927 20.4317 59.0414 20.183 59.0414 19.8763C59.0414 19.5697 58.7927 19.321 58.486 19.321H56.5296V16.6579H62.5043ZM60.6845 7.20433H58.3495V3.65538H60.6845V7.20433ZM57.7942 2.54473H54.6688V1.11089H64.3653V2.54473H61.2398H57.7942V2.54473Z" fill="#300080"/>
<path d="M79.2143 23.4043L78.3113 22.6358V21.2098H79.7968C80.1036 21.2098 80.3521 20.9611 80.3521 20.6545V16.2709C80.3521 15.9642 80.1036 15.7156 79.7968 15.7156H66.9987C66.692 15.7156 66.4434 15.9642 66.4434 16.2709V17.0697C66.4434 17.3764 66.692 17.625 66.9987 17.625C67.3054 17.625 67.554 17.3764 67.554 17.0697V16.8262H79.2416V20.0991H77.7559H69.0395H67.554V19.2431C67.554 18.9364 67.3054 18.6877 66.9987 18.6877C66.692 18.6877 66.4434 18.9364 66.4434 19.2431V20.6545C66.4434 20.9611 66.692 21.2098 66.9987 21.2098H68.4842V22.6358L67.5812 23.4043C66.8581 24.0196 66.4434 24.9173 66.4434 25.8667V26.6548V34.7263C66.4434 36.4818 67.8716 37.9101 69.6273 37.9101H77.1683C78.924 37.9101 80.3523 36.4818 80.3523 34.7263V26.6548V25.8667C80.3523 24.9173 79.9375 24.0197 79.2143 23.4043ZM79.2415 26.0995H71.2275C70.9207 26.0995 70.6722 26.3481 70.6722 26.6548C70.6722 26.9615 70.9207 27.2102 71.2275 27.2102H79.2415V34.7263C79.2415 35.8694 78.3114 36.7995 77.1683 36.7995H69.6273C68.4841 36.7995 67.554 35.8694 67.554 34.7263V27.2102H68.9984C69.3052 27.2102 69.5538 26.9615 69.5538 26.6548C69.5538 26.3481 69.3052 26.0995 68.9984 26.0995H67.554V25.8667C67.554 25.2434 67.8263 24.6541 68.301 24.2501L69.3995 23.3153C69.5235 23.2098 69.5949 23.0552 69.5949 22.8924V21.2098H77.2007V22.8924C77.2006 23.0552 77.2721 23.2098 77.396 23.3153L78.4944 24.2501C78.9692 24.6541 79.2415 25.2434 79.2415 25.8667V26.0995V26.0995Z" fill="#300080"/>
<path d="M70.4191 28.2731C69.4385 28.2731 68.6406 29.0709 68.6406 30.0516C68.6406 31.0323 69.4384 31.8301 70.4191 31.8301C70.7259 31.8301 70.9745 31.5815 70.9745 31.2748C70.9745 30.9681 70.7259 30.7195 70.4191 30.7195C70.0508 30.7195 69.7513 30.4199 69.7513 30.0516C69.7513 29.6833 70.0508 29.3837 70.4191 29.3837C70.7874 29.3837 71.087 29.6833 71.087 30.0516C71.087 30.3583 71.3356 30.6069 71.6423 30.6069C71.9491 30.6069 72.1977 30.3583 72.1977 30.0516C72.1976 29.0709 71.3998 28.2731 70.4191 28.2731Z" fill="#300080"/>
<path d="M74.7932 32.4113C73.9783 32.4113 73.3154 33.0742 73.3154 33.8889C73.3154 34.7038 73.9783 35.3667 74.7932 35.3667C75.608 35.3667 76.2709 34.7038 76.2709 33.8889C76.271 33.0742 75.6081 32.4113 74.7932 32.4113ZM74.7932 34.256C74.5908 34.256 74.4261 34.0914 74.4261 33.8889C74.4261 33.6866 74.5908 33.5219 74.7932 33.5219C74.9955 33.5219 75.1603 33.6866 75.1603 33.8889C75.1604 34.0914 74.9956 34.256 74.7932 34.256Z" fill="#300080"/>
</g>
<defs>
<clipPath id="clip0_1296_154">
<rect width="37.9109" height="37.9109" fill="white"/>
</clipPath>
<clipPath id="clip1_1296_154">
<rect width="37.91" height="37.91" fill="white" transform="translate(48)"/>
</clipPath>
</defs>
</svg>
